<svg width="714" height="624" viewBox="0 0 714 624" fill="none" xmlns="http://www.w3.org/2000/svg">
<path d="M368.781 621.814L402.734 621.814C402.847 623.042 403.791 624 404.937 624C406.16 624 407.149 622.913 407.149 621.567C407.149 620.754 406.787 620.038 406.229 619.596L423.208 587.254C423.487 587.389 423.79 587.47 424.113 587.47C425.337 587.47 426.326 586.382 426.326 585.037C426.326 583.691 425.337 582.603 424.113 582.603C423.79 582.603 423.482 582.684 423.208 582.819L406.229 550.477C406.782 550.035 407.149 549.314 407.149 548.506C407.149 547.694 406.787 546.978 406.229 546.536L423.208 514.194C423.487 514.329 423.79 514.409 424.113 514.409C425.337 514.409 426.326 513.322 426.326 511.976C426.326 510.636 425.337 509.543 424.113 509.543C423.79 509.543 423.482 509.624 423.208 509.758L406.229 477.416C406.787 476.975 407.149 476.259 407.149 475.446C407.149 475.026 407.051 474.633 406.885 474.283C406.728 473.96 406.498 473.686 406.234 473.47L423.213 441.128C423.492 441.263 423.795 441.344 424.123 441.344C425.269 441.344 426.213 440.386 426.326 439.158L460.269 439.158C460.377 440.391 461.321 441.355 462.472 441.355C462.795 441.355 463.103 441.274 463.377 441.139L480.356 473.481C479.798 473.923 479.436 474.639 479.436 475.452C479.436 476.792 480.425 477.885 481.648 477.885C482.794 477.885 483.738 476.927 483.851 475.699L517.804 475.699C517.917 476.927 518.856 477.885 520.007 477.885C520.33 477.885 520.638 477.804 520.912 477.669L537.891 510.011C537.333 510.453 536.971 511.169 536.971 511.982C536.971 513.327 537.96 514.415 539.183 514.415C540.328 514.415 541.273 513.457 541.386 512.224L575.339 512.224C575.451 513.451 576.396 514.415 577.541 514.415C578.765 514.415 579.754 513.327 579.754 511.982C579.754 511.169 579.391 510.453 578.833 510.011L595.813 477.669C596.092 477.804 596.395 477.885 596.718 477.885C597.942 477.885 598.93 476.792 598.93 475.452C598.93 474.111 597.942 473.018 596.718 473.018C596.395 473.018 596.087 473.099 595.813 473.234L578.833 440.891C579.391 440.45 579.754 439.734 579.754 438.921C579.754 438.108 579.391 437.393 578.833 436.951L595.813 404.609C595.827 404.614 595.842 404.625 595.857 404.631C596.121 404.754 596.415 404.824 596.723 404.824C597.868 404.824 598.813 403.866 598.925 402.639L632.879 402.639C632.991 403.866 633.936 404.824 635.081 404.824C636.305 404.824 637.293 403.737 637.293 402.391C637.293 401.578 636.931 400.862 636.373 400.421L653.352 368.079C653.631 368.213 653.935 368.294 654.258 368.294C655.403 368.294 656.348 367.331 656.46 366.103L690.409 366.103C690.521 367.331 691.466 368.289 692.611 368.289C693.835 368.289 694.823 367.201 694.823 365.856C694.823 365.043 694.461 364.327 693.903 363.885L710.882 331.543C711.161 331.678 711.465 331.759 711.788 331.759C713.011 331.759 714 330.666 714 329.325C714 327.98 713.011 326.892 711.788 326.892C711.465 326.892 711.156 326.973 710.882 327.108L693.903 294.765C694.461 294.324 694.823 293.608 694.823 292.795C694.823 291.449 693.835 290.362 692.611 290.362C691.466 290.362 690.521 291.32 690.409 292.548L656.455 292.548C656.421 292.187 656.318 291.853 656.157 291.557C655.77 290.841 655.065 290.357 654.253 290.357C653.93 290.357 653.621 290.432 653.347 290.572L636.368 258.23C636.926 257.789 637.289 257.073 637.289 256.26C637.289 254.914 636.3 253.826 635.076 253.826C633.931 253.826 632.986 254.785 632.874 256.012L598.921 256.012C598.867 255.436 598.637 254.925 598.284 254.537C597.883 254.096 597.33 253.826 596.718 253.826C596.395 253.826 596.087 253.902 595.813 254.042L578.833 221.7C579.391 221.258 579.754 220.542 579.754 219.73C579.754 219.31 579.656 218.917 579.489 218.572C579.328 218.249 579.103 217.969 578.833 217.754L595.813 185.412C596.092 185.546 596.395 185.627 596.718 185.627C597.942 185.627 598.93 184.54 598.93 183.194C598.93 181.848 597.942 180.761 596.718 180.761C596.395 180.761 596.087 180.842 595.813 180.976L578.833 148.634C579.391 148.193 579.754 147.477 579.754 146.664C579.754 146.244 579.656 145.851 579.484 145.506C579.323 145.183 579.103 144.909 578.833 144.694L595.813 112.352C596.092 112.486 596.395 112.567 596.718 112.567C597.863 112.567 598.808 111.609 598.921 110.381L632.874 110.381C632.986 111.609 633.931 112.567 635.076 112.567C636.3 112.567 637.289 111.479 637.289 110.134C637.289 109.321 636.926 108.605 636.368 108.163L653.347 75.8214C653.626 75.9613 653.93 76.0367 654.253 76.0367C655.476 76.0367 656.465 74.9493 656.465 73.6034C656.465 72.2577 655.476 71.1704 654.253 71.1704C653.93 71.1704 653.621 71.2511 653.347 71.3857L636.368 39.0436C636.926 38.6021 637.289 37.8862 637.289 37.0733C637.289 35.7276 636.3 34.6402 635.076 34.6402C633.931 34.6402 632.986 35.5984 632.874 36.8257L598.921 36.8257C598.867 36.2497 598.637 35.7384 598.284 35.3507C597.883 34.9093 597.33 34.6402 596.718 34.6402C596.395 34.6402 596.087 34.7209 595.813 34.8554L578.833 2.51346C579.391 2.07206 579.754 1.35599 579.754 0.543127C579.754 -0.802638 578.765 -1.8901 577.541 -1.8901C576.396 -1.8901 575.451 -0.931849 575.339 0.295507L541.386 0.295509C541.273 -0.931847 540.328 -1.8901 539.183 -1.8901C537.96 -1.8901 536.971 -0.802636 536.971 0.543128C536.971 1.35599 537.333 2.07206 537.891 2.51347L520.912 34.8554C520.633 34.7209 520.33 34.6402 520.007 34.6402C518.861 34.6402 517.917 35.5984 517.804 36.8257L483.851 36.8257C483.797 36.2497 483.567 35.7384 483.215 35.3507C482.813 34.9093 482.26 34.6402 481.648 34.6402C481.325 34.6402 481.017 34.7209 480.743 34.8554L463.769 2.51884C464.038 2.30351 464.258 2.0236 464.42 1.7006C464.591 1.35606 464.689 0.962992 464.689 0.53776C464.689 -0.275106 464.327 -0.991048 463.769 -1.43245L480.743 -33.7692C481.022 -33.6346 481.325 -33.5537 481.648 -33.5537C482.872 -33.5537 483.861 -34.6412 483.861 -35.987C483.861 -37.3327 482.872 -38.4202 481.648 -38.4202C481.325 -38.4202 481.017 -38.3394 480.743 -38.2049L463.769 -70.5361C464.327 -70.9775 464.689 -71.6936 464.689 -72.5064C464.689 -72.8455 464.625 -73.1632 464.513 -73.4538C464.356 -73.8684 464.097 -74.2236 463.769 -74.482L480.743 -106.819C481.017 -106.684 481.325 -106.603 481.648 -106.603C482.872 -106.603 483.861 -107.696 483.861 -109.037C483.861 -110.382 482.872 -111.47 481.648 -111.47C481.325 -111.47 481.017 -111.394 480.743 -111.254L463.764 -143.597C464.317 -144.038 464.684 -144.759 464.684 -145.567C464.684 -146.912 463.695 -148 462.472 -148C461.326 -148 460.382 -147.042 460.269 -145.814L426.316 -145.814C426.203 -147.042 425.264 -148 424.113 -148C422.89 -148 421.901 -146.912 421.901 -145.567C421.901 -144.754 422.263 -144.038 422.821 -143.597L405.847 -111.26C405.568 -111.4 405.26 -111.48 404.932 -111.48C403.787 -111.48 402.842 -110.522 402.729 -109.295L368.776 -109.295C368.664 -110.522 367.724 -111.48 366.574 -111.48C365.35 -111.48 364.361 -110.393 364.361 -109.047C364.361 -108.234 364.724 -107.519 365.281 -107.077L348.302 -74.735C348.023 -74.875 347.72 -74.9504 347.397 -74.9504C346.252 -74.9504 345.307 -73.9921 345.194 -72.7648L311.241 -72.7648C311.187 -73.3408 310.957 -73.8522 310.605 -74.2398C310.204 -74.6812 309.651 -74.9504 309.039 -74.9504C308.716 -74.9504 308.407 -74.875 308.133 -74.735L291.154 -107.077C291.712 -107.519 292.074 -108.234 292.074 -109.047C292.074 -110.393 291.086 -111.48 289.862 -111.48C288.717 -111.48 287.772 -110.522 287.66 -109.295L253.706 -109.295C253.594 -110.522 252.649 -111.48 251.504 -111.48C250.28 -111.48 249.292 -110.393 249.292 -109.047C249.292 -108.234 249.654 -107.519 250.212 -107.077L233.233 -74.7511C232.954 -74.8911 232.65 -74.9666 232.327 -74.9666C231.104 -74.9666 230.115 -73.8791 230.115 -72.5333C230.115 -71.1876 231.109 -70.1001 232.327 -70.1001C232.65 -70.1001 232.959 -70.1754 233.233 -70.3154L250.212 -37.9733C249.654 -37.5319 249.292 -36.816 249.292 -36.0031C249.292 -35.1903 249.654 -34.4743 250.212 -34.0329L233.233 -1.68543C232.954 -1.82002 232.65 -1.90071 232.327 -1.90071C231.334 -1.90071 230.492 -1.17939 230.213 -0.188914C230.169 -0.0327859 230.139 0.128652 230.125 0.295522L196.172 0.295524C196.059 -0.931832 195.119 -1.89008 193.969 -1.89008C192.745 -1.89008 191.757 -0.802621 191.757 0.543143C191.757 1.35601 192.119 2.07207 192.677 2.51348L175.698 34.8555C175.419 34.7155 175.115 34.6402 174.792 34.6402C173.647 34.6402 172.702 35.5984 172.59 36.8257L138.637 36.8257C138.583 36.2497 138.353 35.7384 138 35.3508C137.599 34.9094 137.046 34.6402 136.434 34.6402C136.111 34.6402 135.803 34.7209 135.529 34.8555L118.55 2.51348C119.108 2.07208 119.47 1.35601 119.47 0.543147C119.47 -0.802618 118.481 -1.89008 117.258 -1.89008C116.112 -1.89008 115.168 -0.931829 115.055 0.295527L81.1018 0.295529C80.9893 -0.931827 80.0495 -1.89008 78.8993 -1.89008C77.6757 -1.89008 76.687 -0.802616 76.687 0.543149C76.687 1.35601 77.0492 2.07208 77.6072 2.51349L60.6282 34.8555C60.3492 34.7155 60.0457 34.6402 59.7227 34.6402C58.4991 34.6402 57.5104 35.7276 57.5104 37.0734C57.5104 38.4192 58.4991 39.5066 59.7227 39.5066C60.0457 39.5066 60.3541 39.4311 60.6282 39.2912L77.6072 71.6333C77.0492 72.0747 76.687 72.7906 76.687 73.6035C76.687 74.4163 77.0492 75.1324 77.6072 75.5738L60.6282 107.916C60.3492 107.781 60.0457 107.7 59.7227 107.7C58.4991 107.7 57.5104 108.788 57.5104 110.134C57.5104 111.479 58.4991 112.567 59.7227 112.567C60.0457 112.567 60.3541 112.486 60.6282 112.352L77.6072 144.694C77.0492 145.135 76.687 145.851 76.687 146.664C76.687 148.01 77.6806 149.097 78.8993 149.097C80.0446 149.097 80.9893 148.139 81.1019 146.912L115.055 146.912C115.168 148.139 116.112 149.102 117.258 149.102C117.581 149.102 117.889 149.022 118.163 148.887L135.142 181.229C134.584 181.671 134.222 182.387 134.222 183.199C134.222 184.012 134.584 184.728 135.142 185.17L118.173 217.496C117.899 217.361 117.595 217.286 117.277 217.286C116.817 217.286 116.391 217.442 116.039 217.7C115.5 218.093 115.128 218.728 115.06 219.471L81.1263 219.471C81.0138 218.244 80.074 217.28 78.9238 217.28C77.7002 217.28 76.7115 218.368 76.7115 219.713C76.7115 220.526 77.0737 221.242 77.6317 221.684L60.6526 254.026C60.3737 253.891 60.0702 253.81 59.7472 253.81C58.6018 253.81 57.6572 254.774 57.5446 256.001L23.5915 256.001C23.4789 254.774 22.5343 253.816 21.3889 253.816C20.1653 253.816 19.1766 254.903 19.1766 256.249C19.1766 257.062 19.5388 257.778 20.0968 258.219L3.11778 290.561C2.84369 290.427 2.53534 290.346 2.2123 290.346C0.988673 290.346 -1.45369e-05 291.433 -1.44781e-05 292.779C-1.44193e-05 294.125 0.988673 295.212 2.2123 295.212C2.53534 295.212 2.84369 295.132 3.11778 294.997L20.0968 327.339C19.5388 327.78 19.1766 328.496 19.1766 329.309C19.1766 330.655 20.1653 331.742 21.389 331.742C22.5343 331.742 23.4789 330.784 23.5915 329.557L57.5446 329.557C57.6572 330.784 58.597 331.742 59.7472 331.742C60.0702 331.742 60.3786 331.662 60.6575 331.527L77.6317 363.869C77.0737 364.311 76.7115 365.027 76.7115 365.839C76.7115 367.185 77.7002 368.273 78.9238 368.273C80.0691 368.273 81.0138 367.314 81.1263 366.087L115.08 366.087C115.192 367.314 116.132 368.273 117.282 368.273C117.605 368.273 117.913 368.197 118.188 368.057L135.167 400.399C134.609 400.841 134.246 401.557 134.246 402.37C134.246 403.183 134.609 403.898 135.167 404.34L118.188 436.682C117.909 436.542 117.605 436.467 117.282 436.467C116.058 436.467 115.07 437.554 115.07 438.9C115.07 440.246 116.058 441.333 117.282 441.333C117.605 441.333 117.913 441.252 118.188 441.118L135.167 473.46C134.609 473.901 134.246 474.617 134.246 475.43C134.246 476.776 135.235 477.863 136.459 477.863C137.604 477.863 138.549 476.905 138.661 475.678L172.614 475.678C172.727 476.905 173.667 477.863 174.817 477.863C176.041 477.863 177.029 476.776 177.029 475.43C177.029 474.617 176.667 473.901 176.109 473.46L193.088 441.118C193.362 441.252 193.671 441.333 193.994 441.333C195.139 441.333 196.084 440.375 196.196 439.142L230.149 439.142C230.174 439.39 230.228 439.621 230.311 439.842C230.644 440.719 231.432 441.333 232.352 441.333C232.675 441.333 232.983 441.252 233.257 441.118L250.231 473.454C249.673 473.896 249.311 474.617 249.311 475.425C249.311 476.77 250.3 477.858 251.524 477.858C252.669 477.858 253.613 476.9 253.726 475.667L287.679 475.667C287.782 476.813 288.609 477.729 289.652 477.842C289.725 477.852 289.803 477.852 289.877 477.852C289.955 477.852 290.029 477.847 290.102 477.842C290.342 477.815 290.572 477.745 290.782 477.637L307.761 509.979C307.203 510.421 306.841 511.142 306.841 511.949C306.841 512.762 307.203 513.478 307.761 513.92L290.782 546.262C290.508 546.127 290.2 546.046 289.877 546.046C288.653 546.046 287.665 547.134 287.665 548.48C287.665 549.825 288.658 550.913 289.877 550.913C290.2 550.913 290.508 550.832 290.782 550.697L307.761 583.039C307.203 583.481 306.841 584.197 306.841 585.01C306.841 586.355 307.83 587.443 309.053 587.443C310.199 587.443 311.143 586.485 311.256 585.257L345.209 585.257C345.322 586.485 346.266 587.443 347.412 587.443C347.735 587.443 348.043 587.368 348.317 587.228L365.296 619.57C364.738 620.011 364.376 620.727 364.376 621.54C364.376 622.886 365.365 623.973 366.588 623.973C367.729 624 368.669 623.042 368.781 621.814ZM518.421 38.7744C518.822 39.2158 519.375 39.485 519.987 39.485C520.31 39.485 520.618 39.4043 520.892 39.2698L537.871 71.6117C537.313 72.0531 536.951 72.7691 536.951 73.582C536.951 74.3949 537.313 75.1108 537.871 75.5576L522.88 104.115L520.892 107.9C520.613 107.765 520.31 107.684 519.987 107.684C518.842 107.684 517.897 108.643 517.784 109.87L483.831 109.87C483.802 109.542 483.714 109.235 483.577 108.955C483.205 108.196 482.471 107.684 481.629 107.684C481.306 107.684 480.997 107.76 480.723 107.9L463.744 75.5576C464.297 75.1162 464.664 74.3949 464.664 73.582C464.664 72.7691 464.302 72.0531 463.744 71.6117L480.723 39.2698C480.997 39.4043 481.306 39.485 481.629 39.485C482.774 39.485 483.719 38.5268 483.831 37.2994L517.784 37.2994C517.838 37.8754 518.073 38.3868 518.421 38.7744ZM177.005 183.199C177.005 182.387 176.643 181.671 176.085 181.229L193.064 148.887C193.343 149.022 193.646 149.102 193.969 149.102C195.114 149.102 196.059 148.144 196.172 146.917L230.125 146.917C230.154 147.245 230.247 147.552 230.379 147.832C230.756 148.591 231.485 149.108 232.327 149.108C232.65 149.108 232.959 149.032 233.233 148.892L250.207 181.224C249.884 181.482 249.624 181.837 249.468 182.247C249.355 182.537 249.292 182.86 249.292 183.205C249.292 184.018 249.654 184.734 250.212 185.175L233.243 217.501C233.228 217.496 233.213 217.485 233.198 217.479C232.934 217.356 232.641 217.286 232.337 217.286C231.417 217.286 230.629 217.905 230.296 218.782C230.213 219.003 230.154 219.234 230.135 219.477L196.201 219.477C196.088 218.249 195.144 217.286 193.998 217.286C193.666 217.286 193.352 217.366 193.073 217.512L176.099 185.17C176.643 184.734 177.005 184.012 177.005 183.199ZM309.034 2.96556C310.179 2.96556 311.124 2.00743 311.236 0.780077L345.19 0.780075C345.302 2.00743 346.242 2.96556 347.392 2.96556C347.715 2.96556 348.024 2.88487 348.298 2.75029L365.277 35.0924C364.719 35.5338 364.356 36.2497 364.356 37.0626C364.356 37.8162 364.67 38.4945 365.164 38.9413C365.198 38.9736 365.237 39.0058 365.277 39.0328L348.298 71.3749C348.019 71.2403 347.715 71.1596 347.392 71.1596C346.247 71.1596 345.302 72.1177 345.19 73.3451L311.236 73.3451C311.124 72.1177 310.184 71.1596 309.034 71.1596C308.711 71.1596 308.403 71.2349 308.128 71.3749L291.154 39.0382C291.536 38.7313 291.825 38.2954 291.967 37.7894C292.035 37.5579 292.07 37.3156 292.07 37.0626C292.07 36.2497 291.707 35.5338 291.149 35.0924L308.128 2.75029C308.407 2.88487 308.711 2.96556 309.034 2.96556ZM517.784 110.365C517.897 111.592 518.837 112.551 519.987 112.551C520.31 112.551 520.618 112.475 520.892 112.335L537.871 144.677C537.318 145.119 536.951 145.835 536.951 146.648C536.951 147.407 537.265 148.08 537.759 148.526C537.798 148.559 537.837 148.591 537.871 148.618L520.892 180.96C520.613 180.825 520.31 180.745 519.987 180.745C518.842 180.745 517.897 181.703 517.784 182.93L483.831 182.93C483.807 182.683 483.753 182.446 483.67 182.23C483.332 181.358 482.549 180.745 481.629 180.745C481.306 180.745 480.997 180.825 480.723 180.96L463.744 148.618C464.302 148.176 464.664 147.461 464.664 146.648C464.664 145.975 464.415 145.367 464.013 144.925C463.93 144.834 463.837 144.747 463.739 144.672L480.718 112.33C480.992 112.47 481.301 112.545 481.624 112.545C482.769 112.545 483.714 111.587 483.826 110.36L517.784 110.36L517.784 110.365ZM536.951 219.713C536.951 220.133 537.049 220.532 537.22 220.876C537.377 221.199 537.602 221.474 537.871 221.689L520.897 254.026C520.618 253.891 520.315 253.81 519.992 253.81C518.846 253.81 517.902 254.769 517.789 255.996L483.841 255.996C483.817 255.748 483.758 255.511 483.675 255.296C483.337 254.424 482.554 253.81 481.634 253.81C481.311 253.81 481.002 253.891 480.728 254.026L463.754 221.689C464.312 221.248 464.674 220.532 464.674 219.719C464.674 219.38 464.611 219.057 464.498 218.766C464.415 218.545 464.302 218.346 464.165 218.163C464.043 218.002 463.906 217.862 463.754 217.738L480.733 185.396C481.007 185.53 481.315 185.611 481.639 185.611C482.554 185.611 483.342 184.997 483.679 184.125C483.763 183.905 483.821 183.673 483.841 183.425L517.794 183.425C517.824 183.754 517.912 184.061 518.049 184.341C518.421 185.1 519.155 185.616 519.997 185.616C520.32 185.616 520.628 185.541 520.902 185.401L537.881 217.743C537.313 218.185 536.951 218.901 536.951 219.713ZM536.956 292.785C536.956 293.597 537.318 294.313 537.876 294.755L522.885 323.312L520.897 327.097C520.618 326.962 520.315 326.881 519.992 326.881C518.846 326.881 517.902 327.84 517.789 329.072L483.836 329.072C483.807 328.744 483.719 328.437 483.582 328.157C483.205 327.398 482.475 326.881 481.634 326.881C481.311 326.881 481.002 326.962 480.728 327.097L463.749 294.755C464.307 294.313 464.669 293.592 464.669 292.785C464.669 291.972 464.307 291.256 463.749 290.814L480.728 258.472C481.007 258.607 481.311 258.688 481.634 258.688C482.779 258.688 483.724 257.729 483.836 256.502L517.784 256.502C517.809 256.75 517.863 256.981 517.951 257.202C518.288 258.074 519.072 258.688 519.992 258.688C520.315 258.688 520.623 258.612 520.897 258.472L537.876 290.814C537.318 291.256 536.956 291.977 536.956 292.785ZM253.56 328.367C253.222 327.495 252.439 326.881 251.519 326.881C251.196 326.881 250.887 326.957 250.613 327.097L233.639 294.76C234.197 294.319 234.559 293.603 234.559 292.79C234.559 291.977 234.197 291.261 233.639 290.82L250.618 258.478C250.633 258.483 250.647 258.494 250.657 258.499C250.921 258.623 251.215 258.693 251.524 258.693C252.669 258.693 253.613 257.735 253.726 256.507L287.665 256.507C287.748 257.412 288.281 258.165 289.015 258.505C289.28 258.628 289.573 258.698 289.877 258.698C290.195 258.698 290.503 258.623 290.777 258.488L307.752 290.82C307.194 291.261 306.831 291.977 306.831 292.79C306.831 293.603 307.194 294.319 307.752 294.76L290.777 327.097C290.567 326.995 290.337 326.924 290.097 326.898C290.024 326.887 289.945 326.887 289.872 326.887C288.727 326.887 287.782 327.845 287.669 329.078L253.731 329.078C253.697 328.819 253.643 328.588 253.56 328.367ZM234.554 219.719C234.554 218.901 234.187 218.179 233.624 217.743L250.594 185.423C250.868 185.557 251.176 185.638 251.499 185.638C252.419 185.638 253.207 185.019 253.54 184.141C253.628 183.921 253.682 183.678 253.706 183.431L287.66 183.431C287.689 183.759 287.777 184.066 287.914 184.346C288.291 185.105 289.02 185.622 289.857 185.622C290.18 185.622 290.489 185.546 290.763 185.407L307.742 217.748C307.184 218.19 306.822 218.906 306.822 219.719C306.822 220.306 307.012 220.844 307.326 221.269C307.448 221.431 307.585 221.571 307.742 221.694L290.763 254.037C290.748 254.031 290.733 254.02 290.724 254.015C290.459 253.891 290.166 253.821 289.857 253.821C288.712 253.821 287.767 254.779 287.655 256.007L253.716 256.007C253.662 255.436 253.427 254.919 253.08 254.537C252.879 254.311 252.635 254.133 252.365 254.01C252.101 253.886 251.807 253.816 251.499 253.816C251.181 253.816 250.877 253.891 250.598 254.026L233.624 221.694C234.192 221.253 234.554 220.532 234.554 219.719ZM479.421 256.249C479.421 256.588 479.485 256.906 479.597 257.196C479.739 257.562 479.955 257.885 480.229 258.133C480.263 258.165 480.302 258.198 480.341 258.225L463.362 290.567C463.088 290.427 462.78 290.351 462.457 290.351C461.312 290.351 460.367 291.31 460.254 292.537L426.301 292.537C426.272 292.209 426.184 291.896 426.047 291.622C425.675 290.857 424.941 290.341 424.099 290.341C423.776 290.341 423.467 290.416 423.193 290.556L406.219 258.219C406.777 257.778 407.139 257.062 407.139 256.249C407.139 255.915 407.076 255.592 406.963 255.296C406.934 255.221 406.904 255.151 406.87 255.081C406.713 254.758 406.488 254.483 406.224 254.273L423.198 221.937C423.477 222.071 423.781 222.152 424.104 222.152C425.249 222.152 426.194 221.194 426.306 219.966L460.254 219.966C460.279 220.214 460.333 220.446 460.421 220.666C460.759 221.538 461.542 222.152 462.462 222.152C462.785 222.152 463.093 222.077 463.367 221.937L480.341 254.273C479.783 254.72 479.421 255.436 479.421 256.249ZM309.034 149.092C309.876 149.092 310.605 148.575 310.982 147.816C311.119 147.541 311.207 147.229 311.241 146.901L345.19 146.901C345.302 148.128 346.247 149.086 347.392 149.086C347.72 149.086 348.028 149.006 348.302 148.871L365.277 181.208C364.719 181.649 364.356 182.365 364.356 183.178C364.356 183.991 364.719 184.707 365.277 185.148L352.996 208.538L348.298 217.49C348.019 217.35 347.715 217.275 347.392 217.275C346.247 217.275 345.302 218.233 345.19 219.46L311.236 219.46C311.207 219.132 311.119 218.82 310.982 218.545C310.605 217.786 309.876 217.275 309.034 217.275C308.711 217.275 308.403 217.35 308.128 217.49L291.149 185.148C291.702 184.707 292.07 183.991 292.07 183.178C292.07 182.365 291.707 181.649 291.149 181.208L308.124 148.871C308.407 149.011 308.711 149.092 309.034 149.092ZM402.979 184.341C403.351 185.1 404.085 185.616 404.927 185.616C405.25 185.616 405.558 185.541 405.832 185.401L422.812 217.743C422.254 218.185 421.891 218.901 421.891 219.713C421.891 220.053 421.955 220.376 422.068 220.666C422.224 221.075 422.484 221.425 422.807 221.689L405.832 254.026C405.553 253.891 405.25 253.81 404.927 253.81C403.782 253.81 402.837 254.769 402.724 255.996L368.771 255.996C368.742 255.668 368.649 255.361 368.517 255.081C368.14 254.322 367.411 253.805 366.574 253.805C366.251 253.805 365.942 253.886 365.668 254.02L348.689 221.678C349.242 221.237 349.609 220.521 349.609 219.708C349.609 218.895 349.247 218.179 348.689 217.738L365.668 185.396C365.947 185.53 366.251 185.611 366.574 185.611C367.719 185.611 368.664 184.653 368.776 183.425L402.729 183.425C402.754 183.759 402.842 184.066 402.979 184.341ZM309.9 290.54C309.636 290.416 309.342 290.346 309.039 290.346C308.716 290.346 308.412 290.421 308.138 290.556L291.164 258.225C291.722 257.783 292.084 257.067 292.084 256.254C292.084 255.436 291.717 254.715 291.154 254.273L308.133 221.937C308.412 222.071 308.716 222.152 309.039 222.152C310.184 222.152 311.129 221.194 311.241 219.961L345.194 219.961C345.307 221.188 346.252 222.152 347.397 222.152C347.72 222.152 348.028 222.071 348.302 221.937L365.282 254.279C364.724 254.72 364.361 255.436 364.361 256.249C364.361 257.008 364.675 257.681 365.169 258.128C365.203 258.16 365.247 258.192 365.282 258.225L348.302 290.567C348.023 290.432 347.72 290.351 347.397 290.351C346.252 290.351 345.307 291.31 345.194 292.537L311.251 292.537C311.168 291.633 310.634 290.874 309.9 290.54ZM366.799 326.892C366.725 326.881 366.647 326.881 366.569 326.881C366.246 326.881 365.937 326.957 365.663 327.097L348.684 294.755C349.125 294.405 349.448 293.883 349.56 293.274C349.59 293.118 349.604 292.951 349.604 292.785C349.604 291.972 349.242 291.256 348.684 290.814L365.663 258.472C365.942 258.612 366.246 258.688 366.569 258.688C367.714 258.688 368.659 257.729 368.771 256.502L402.724 256.502C402.749 256.75 402.803 256.986 402.891 257.207C403.224 258.079 404.012 258.698 404.932 258.698C405.255 258.698 405.563 258.623 405.837 258.483L422.812 290.82C422.254 291.261 421.891 291.977 421.891 292.79C421.891 293.129 421.955 293.452 422.068 293.743C422.224 294.152 422.484 294.507 422.807 294.765L405.832 327.102C405.558 326.968 405.255 326.892 404.937 326.892C404.932 326.892 404.932 326.892 404.927 326.892C403.782 326.892 402.837 327.85 402.724 329.078L368.781 329.078C368.678 327.915 367.846 327.005 366.799 326.892ZM461.4 148.79C461.713 148.979 462.07 149.086 462.452 149.086C462.775 149.086 463.083 149.011 463.358 148.871L480.337 181.213C479.896 181.563 479.573 182.085 479.46 182.693C479.431 182.849 479.416 183.016 479.416 183.183C479.416 183.35 479.431 183.517 479.46 183.673C479.573 184.281 479.896 184.804 480.337 185.154L463.358 217.495C463.079 217.356 462.775 217.28 462.452 217.28C461.307 217.28 460.362 218.238 460.249 219.466L426.301 219.466C426.277 219.218 426.223 218.987 426.135 218.766C426.105 218.691 426.076 218.621 426.042 218.551C425.67 217.792 424.936 217.28 424.099 217.28C423.776 217.28 423.467 217.356 423.193 217.495L406.219 185.154C406.777 184.712 407.139 183.996 407.139 183.183C407.139 182.37 406.777 181.654 406.219 181.213L423.198 148.871C423.477 149.011 423.781 149.086 424.104 149.086C425.249 149.086 426.194 148.128 426.306 146.901L460.259 146.901C460.328 147.714 460.773 148.413 461.4 148.79ZM421.886 146.653C421.886 147.412 422.2 148.085 422.694 148.532C422.733 148.564 422.767 148.596 422.807 148.623L405.828 180.965C405.549 180.831 405.245 180.75 404.922 180.75C403.777 180.75 402.832 181.708 402.72 182.936L368.766 182.936C368.654 181.708 367.709 180.75 366.564 180.75C366.241 180.75 365.932 180.831 365.658 180.965L348.684 148.623C348.949 148.408 349.174 148.133 349.33 147.816C349.502 147.471 349.6 147.073 349.6 146.648C349.6 145.975 349.35 145.367 348.953 144.925C348.87 144.834 348.777 144.747 348.679 144.672L358.615 125.745L365.653 112.335C365.932 112.47 366.236 112.551 366.559 112.551C367.401 112.551 368.13 112.034 368.507 111.27C368.644 110.995 368.732 110.688 368.762 110.36L402.71 110.36C402.822 111.587 403.767 112.545 404.912 112.545C405.24 112.545 405.549 112.465 405.823 112.33L422.797 144.667C422.253 145.124 421.886 145.84 421.886 146.653ZM345.826 75.3154C346.227 75.7568 346.78 76.0259 347.392 76.0259C347.715 76.0259 348.024 75.9452 348.298 75.8106L365.272 108.147C365.061 108.314 364.875 108.524 364.733 108.761C364.493 109.149 364.356 109.617 364.356 110.123C364.356 110.71 364.547 111.248 364.861 111.673C364.983 111.835 365.12 111.975 365.277 112.098L360.774 120.674L348.302 144.435C348.028 144.301 347.72 144.22 347.397 144.22C346.555 144.22 345.826 144.737 345.449 145.496C345.312 145.77 345.224 146.077 345.194 146.406L311.246 146.406C311.192 145.83 310.962 145.313 310.61 144.93C310.209 144.489 309.656 144.22 309.044 144.22C308.721 144.22 308.412 144.301 308.138 144.435L291.164 112.104C291.487 111.846 291.747 111.49 291.903 111.076C292.016 110.785 292.079 110.462 292.079 110.123C292.079 109.31 291.717 108.594 291.159 108.153L308.128 75.8268C308.403 75.9667 308.711 76.042 309.034 76.042C310.027 76.042 310.869 75.3207 311.148 74.3302C311.192 74.1741 311.227 74.0127 311.241 73.8404L345.194 73.8404C345.239 74.4164 345.473 74.9278 345.826 75.3154ZM251.499 112.572C252.419 112.572 253.207 111.953 253.54 111.076C253.623 110.86 253.682 110.629 253.702 110.387L287.65 110.387C287.762 111.614 288.702 112.572 289.852 112.572C290.18 112.572 290.489 112.492 290.768 112.352L307.742 144.683C307.419 144.941 307.159 145.297 307.003 145.706C306.89 145.996 306.826 146.319 306.826 146.659C306.826 147.471 307.189 148.187 307.747 148.629L290.773 180.965C290.498 180.831 290.19 180.75 289.867 180.75C288.722 180.75 287.777 181.708 287.665 182.936L253.711 182.936C253.599 181.708 252.659 180.75 251.509 180.75C251.186 180.75 250.877 180.831 250.603 180.965L233.629 148.634C233.952 148.37 234.212 148.02 234.368 147.606C234.481 147.315 234.544 146.992 234.544 146.653C234.544 145.84 234.182 145.124 233.624 144.683L250.594 112.357C250.873 112.492 251.176 112.572 251.499 112.572ZM292.089 329.315C292.089 328.975 292.026 328.658 291.913 328.367C291.756 327.953 291.497 327.603 291.169 327.344L308.143 295.002C308.158 295.008 308.172 295.018 308.187 295.024C308.451 295.148 308.745 295.218 309.049 295.218C310.199 295.218 311.143 294.254 311.251 293.027L345.19 293.027C345.258 293.764 345.625 294.405 346.154 294.798C346.506 295.062 346.932 295.212 347.392 295.212C347.715 295.212 348.024 295.132 348.298 294.997L365.277 327.339C364.719 327.78 364.356 328.496 364.356 329.309C364.356 329.896 364.547 330.434 364.861 330.86C364.983 331.021 365.12 331.161 365.277 331.285L348.302 363.627C348.092 363.525 347.862 363.455 347.622 363.428C347.549 363.417 347.47 363.417 347.397 363.417C346.252 363.417 345.307 364.375 345.194 365.603L311.251 365.603C311.197 365.027 310.967 364.515 310.615 364.128C310.262 363.74 309.793 363.482 309.269 363.428C309.195 363.417 309.117 363.417 309.044 363.417C308.721 363.417 308.417 363.492 308.143 363.627L291.169 331.296C291.722 330.849 292.089 330.127 292.089 329.315ZM426.311 365.597C426.257 365.021 426.027 364.51 425.675 364.122C425.273 363.681 424.72 363.412 424.109 363.412C423.785 363.412 423.477 363.492 423.203 363.627L406.224 331.285C406.263 331.253 406.297 331.226 406.332 331.193C406.826 330.747 407.139 330.068 407.139 329.309C407.139 328.496 406.777 327.775 406.219 327.334L423.193 295.002C423.472 295.137 423.776 295.218 424.099 295.218C425.244 295.218 426.189 294.26 426.301 293.032L460.254 293.032C460.367 294.26 461.312 295.218 462.457 295.218C462.535 295.218 462.609 295.212 462.682 295.207C462.922 295.18 463.152 295.11 463.362 295.002L480.341 327.344C479.783 327.786 479.421 328.502 479.421 329.315C479.421 329.901 479.612 330.44 479.925 330.865C480.048 331.027 480.185 331.167 480.341 331.29L463.367 363.627C463.093 363.492 462.785 363.412 462.467 363.412C462.007 363.412 461.576 363.568 461.224 363.832C460.695 364.224 460.328 364.865 460.259 365.597L426.311 365.597ZM422.156 72.43C421.984 72.7745 421.886 73.1729 421.886 73.5928C421.886 74.4057 422.249 75.1216 422.807 75.563L405.832 107.9C405.553 107.765 405.25 107.684 404.927 107.684C404.012 107.684 403.224 108.298 402.886 109.17C402.803 109.391 402.744 109.622 402.72 109.87L368.771 109.87C368.659 108.643 367.719 107.684 366.569 107.684C366.241 107.684 365.932 107.765 365.653 107.905L348.679 75.5684C349.237 75.1269 349.6 74.4111 349.6 73.5982C349.6 72.7853 349.237 72.0693 348.679 71.6279L365.658 39.2858C365.932 39.4257 366.241 39.5011 366.564 39.5011C367.709 39.5011 368.654 38.543 368.766 37.3156L402.72 37.3156C402.749 37.644 402.837 37.9508 402.974 38.2307C403.346 38.9897 404.08 39.5066 404.922 39.5066C405.245 39.5066 405.553 39.4311 405.828 39.2912L422.802 71.6279C422.537 71.8324 422.312 72.1123 422.156 72.43ZM251.499 39.5066C252.493 39.5066 253.334 38.7853 253.613 37.7894C253.658 37.6387 253.687 37.4825 253.702 37.321L287.655 37.321C287.767 38.5483 288.707 39.5066 289.857 39.5066C290.18 39.5066 290.489 39.4311 290.763 39.2912L307.737 71.6279C307.355 71.9347 307.066 72.3654 306.924 72.8714C306.856 73.1029 306.822 73.3505 306.822 73.6034C306.822 74.4163 307.184 75.1324 307.742 75.5738L290.773 107.9C290.494 107.765 290.19 107.684 289.867 107.684C289.025 107.684 288.296 108.201 287.919 108.96C287.851 109.1 287.792 109.251 287.748 109.402C287.704 109.552 287.674 109.708 287.66 109.87L253.711 109.87C253.599 108.643 252.659 107.684 251.509 107.684C251.181 107.684 250.868 107.765 250.589 107.905L233.615 75.5738C234.173 75.1324 234.535 74.4163 234.535 73.6034C234.535 72.7906 234.173 72.0747 233.615 71.6333L250.594 39.2912C250.873 39.4311 251.176 39.5066 251.499 39.5066ZM193.969 222.168C194.429 222.168 194.855 222.012 195.207 221.748C195.746 221.355 196.113 220.715 196.186 219.977L230.12 219.977C230.232 221.205 231.177 222.163 232.322 222.163C232.65 222.163 232.964 222.082 233.243 221.942L250.212 254.273C249.654 254.715 249.292 255.431 249.292 256.244C249.292 257.062 249.659 257.783 250.222 258.225L233.247 290.567C232.968 290.432 232.665 290.351 232.342 290.351C231.197 290.351 230.252 291.31 230.139 292.537L196.186 292.537C196.074 291.31 195.129 290.351 193.984 290.351C193.661 290.351 193.352 290.427 193.078 290.567L176.099 258.225C176.652 257.783 177.019 257.067 177.019 256.254C177.019 255.581 176.77 254.973 176.373 254.532C176.29 254.44 176.197 254.354 176.099 254.279L193.068 221.953C193.347 222.093 193.651 222.168 193.969 222.168ZM177.024 329.315C177.024 328.502 176.662 327.786 176.104 327.344L193.083 295.002C193.362 295.137 193.666 295.218 193.989 295.218C195.134 295.218 196.079 294.26 196.191 293.032L230.144 293.032C230.257 294.26 231.202 295.218 232.347 295.218C232.425 295.218 232.499 295.212 232.572 295.207C232.812 295.18 233.042 295.11 233.252 295.002L250.226 327.339C249.673 327.78 249.306 328.496 249.306 329.309C249.306 329.562 249.341 329.805 249.409 330.036C249.429 330.106 249.453 330.176 249.478 330.241C249.478 330.246 249.483 330.251 249.483 330.257C249.566 330.477 249.678 330.682 249.815 330.86C249.938 331.021 250.075 331.161 250.226 331.28L233.247 363.622C232.968 363.487 232.665 363.406 232.342 363.406C231.197 363.406 230.252 364.37 230.139 365.597L196.191 365.597C196.162 365.269 196.069 364.962 195.937 364.682C195.565 363.923 194.831 363.406 193.994 363.406C193.671 363.406 193.362 363.487 193.088 363.622L176.109 331.28C176.657 330.849 177.024 330.127 177.024 329.315ZM366.579 399.942C366.256 399.942 365.947 400.017 365.673 400.157L348.694 367.815C349.252 367.374 349.614 366.658 349.614 365.845C349.614 365.425 349.516 365.032 349.345 364.688C349.183 364.365 348.963 364.09 348.689 363.875L365.663 331.538C365.874 331.64 366.104 331.71 366.344 331.737C366.417 331.748 366.495 331.748 366.569 331.748C367.714 331.748 368.659 330.79 368.771 329.557L402.715 329.557C402.739 329.805 402.793 330.041 402.881 330.262C403.214 331.134 404.002 331.748 404.917 331.748C405.24 331.748 405.549 331.667 405.823 331.533L422.802 363.875C422.763 363.907 422.723 363.934 422.689 363.966C422.195 364.413 421.882 365.091 421.882 365.845C421.882 366.658 422.249 367.379 422.807 367.82L405.832 400.152C405.553 400.012 405.25 399.936 404.927 399.936C403.782 399.936 402.837 400.895 402.724 402.122L368.771 402.122C368.669 400.9 367.729 399.942 366.579 399.942ZM481.643 399.942C481.32 399.942 481.012 400.017 480.738 400.157L463.759 367.815C463.798 367.788 463.832 367.756 463.867 367.724C464.361 367.277 464.679 366.598 464.679 365.839C464.679 365.027 464.312 364.305 463.754 363.864L480.728 331.533C481.002 331.667 481.311 331.748 481.634 331.748C482.779 331.748 483.724 330.79 483.836 329.562L517.789 329.562C517.892 330.709 518.724 331.619 519.767 331.737C519.84 331.742 519.918 331.748 519.992 331.748C520.065 331.748 520.144 331.742 520.217 331.737C520.457 331.71 520.687 331.64 520.897 331.533L537.876 363.875C537.318 364.316 536.956 365.032 536.956 365.845C536.956 366.598 537.269 367.277 537.764 367.724C537.798 367.756 537.837 367.788 537.876 367.815L520.897 400.157C520.618 400.023 520.315 399.942 519.992 399.942C518.846 399.942 517.902 400.9 517.789 402.127L483.846 402.127C483.733 400.905 482.794 399.942 481.643 399.942ZM577.522 295.218C577.6 295.218 577.674 295.212 577.747 295.207C577.987 295.18 578.217 295.11 578.427 295.002L595.406 327.344C594.848 327.786 594.486 328.502 594.486 329.315C594.486 329.901 594.677 330.44 594.99 330.865C595.108 331.027 595.25 331.167 595.401 331.29L578.422 363.632C578.143 363.492 577.84 363.417 577.517 363.417C576.372 363.417 575.427 364.375 575.314 365.603L541.361 365.603C541.332 365.274 541.244 364.967 541.107 364.688C540.735 363.928 540.001 363.412 539.164 363.412C538.841 363.412 538.532 363.487 538.258 363.627L521.279 331.285C521.837 330.844 522.199 330.127 522.199 329.315C522.199 328.502 521.837 327.786 521.279 327.344L522.14 325.703L538.258 295.002C538.532 295.137 538.841 295.218 539.164 295.218C540.309 295.218 541.254 294.259 541.366 293.032L575.319 293.032C575.432 294.259 576.377 295.218 577.522 295.218ZM460.891 75.3046C461.292 75.746 461.845 76.0152 462.457 76.0152C462.78 76.0152 463.088 75.9398 463.362 75.7998L480.341 108.142C479.783 108.583 479.421 109.299 479.421 110.112C479.421 110.699 479.612 111.237 479.925 111.663C480.048 111.824 480.185 111.964 480.341 112.088L463.362 144.43C463.083 144.295 462.78 144.215 462.457 144.215C461.312 144.215 460.367 145.173 460.254 146.4L426.301 146.4C426.247 145.824 426.017 145.313 425.665 144.925C425.264 144.484 424.711 144.215 424.099 144.215C423.776 144.215 423.467 144.295 423.193 144.43L406.219 112.093C406.488 111.878 406.709 111.603 406.87 111.28C407.041 110.936 407.139 110.537 407.139 110.118C407.139 109.445 406.89 108.836 406.493 108.395C406.41 108.303 406.317 108.217 406.224 108.142L423.198 75.8052C423.477 75.9398 423.781 76.0206 424.104 76.0206C424.945 76.0206 425.68 75.5038 426.052 74.7394C426.189 74.4595 426.277 74.1526 426.306 73.8243L460.259 73.8243C460.308 74.4056 460.538 74.9224 460.891 75.3046ZM403.356 -34.2805C403.757 -33.8391 404.31 -33.5699 404.922 -33.5699C405.245 -33.5699 405.553 -33.6453 405.828 -33.7853L422.802 -1.44863C422.532 -1.23329 422.312 -0.958759 422.151 -0.641132C421.979 -0.296588 421.882 0.101727 421.882 0.526959C421.882 1.11375 422.072 1.65214 422.386 2.07737C422.508 2.23887 422.645 2.37889 422.802 2.50267L405.828 34.8394C405.549 34.7048 405.245 34.624 404.922 34.624C404.08 34.624 403.346 35.1409 402.974 35.9053C402.837 36.1852 402.749 36.492 402.715 36.8204L368.762 36.8204C368.732 36.492 368.644 36.1852 368.507 35.9053C368.13 35.1462 367.401 34.6294 366.564 34.6294C366.241 34.6294 365.932 34.7101 365.658 34.8446L348.679 2.50267C349.237 2.06126 349.6 1.3452 349.6 0.532333C349.6 -0.280472 349.237 -0.996414 348.679 -1.43782L365.658 -33.7799C365.932 -33.6453 366.241 -33.5645 366.564 -33.5645C367.709 -33.5645 368.654 -34.5228 368.766 -35.7501L402.72 -35.7501C402.773 -35.1849 403.003 -34.6681 403.356 -34.2805ZM230.756 75.3262C231.157 75.7676 231.711 76.0367 232.322 76.0367C232.645 76.0367 232.954 75.9614 233.228 75.8214L250.202 108.153C249.879 108.411 249.624 108.761 249.468 109.175C249.35 109.472 249.287 109.795 249.287 110.134C249.287 110.72 249.478 111.259 249.791 111.684C249.913 111.846 250.05 111.985 250.202 112.109L233.233 144.435C232.954 144.301 232.65 144.22 232.327 144.22C231.407 144.22 230.619 144.839 230.286 145.716C230.198 145.937 230.144 146.174 230.12 146.427L196.167 146.427C196.137 146.099 196.049 145.792 195.912 145.512C195.54 144.753 194.806 144.236 193.969 144.236C193.646 144.236 193.338 144.311 193.064 144.451L176.085 112.109C176.643 111.668 177.005 110.952 177.005 110.139C177.005 109.326 176.643 108.61 176.085 108.169L193.064 75.8268C193.343 75.9667 193.646 76.042 193.969 76.042C195.114 76.042 196.059 75.084 196.172 73.8566L230.125 73.8566C230.174 74.4272 230.409 74.9386 230.756 75.3262ZM138.402 328.157C138.025 327.398 137.296 326.881 136.454 326.881C136.131 326.881 135.822 326.957 135.548 327.097L118.569 294.755C119.127 294.313 119.489 293.597 119.489 292.785C119.489 291.972 119.127 291.256 118.569 290.814L135.538 258.488C135.813 258.623 136.116 258.698 136.434 258.698C136.826 258.698 137.188 258.585 137.506 258.391C138.133 258.02 138.573 257.326 138.651 256.507L172.585 256.507C172.698 257.735 173.642 258.693 174.788 258.693C175.12 258.693 175.434 258.612 175.713 258.467L192.687 290.809C192.129 291.25 191.767 291.966 191.767 292.779C191.767 293.592 192.129 294.308 192.687 294.749L179.56 319.76L175.713 327.091C175.434 326.957 175.13 326.876 174.807 326.876C173.662 326.876 172.717 327.834 172.605 329.062L138.651 329.062C138.627 328.744 138.539 328.432 138.402 328.157ZM253.633 401.654C253.354 400.663 252.512 399.942 251.519 399.942C251.196 399.942 250.887 400.017 250.613 400.157L233.639 367.82C234.192 367.379 234.559 366.663 234.559 365.85C234.559 365.511 234.496 365.193 234.383 364.897C234.226 364.483 233.962 364.133 233.639 363.875L250.618 331.533C250.897 331.673 251.2 331.748 251.524 331.748C252.669 331.748 253.613 330.79 253.726 329.562L287.665 329.562C287.748 330.467 288.281 331.22 289.015 331.559C289.28 331.683 289.573 331.753 289.877 331.753C290.195 331.753 290.503 331.678 290.777 331.543L307.752 363.875C307.194 364.316 306.831 365.032 306.831 365.845C306.831 366.663 307.198 367.379 307.756 367.82L290.782 400.157C290.508 400.017 290.2 399.942 289.877 399.942C288.732 399.942 287.787 400.9 287.674 402.127L253.721 402.127C253.706 401.966 253.672 401.804 253.633 401.654ZM310.997 437.748C310.62 436.989 309.89 436.472 309.049 436.472C308.726 436.472 308.417 436.553 308.143 436.687L291.164 404.345C291.722 403.904 292.084 403.188 292.084 402.375C292.084 401.562 291.722 400.846 291.164 400.405L308.138 368.068C308.349 368.17 308.579 368.24 308.819 368.267C308.892 368.278 308.97 368.278 309.049 368.278C310.194 368.278 311.139 367.32 311.251 366.092L345.194 366.092C345.297 367.239 346.129 368.154 347.177 368.267C347.25 368.278 347.329 368.278 347.407 368.278C347.73 368.278 348.038 368.203 348.312 368.063L365.291 400.405C364.733 400.846 364.371 401.562 364.371 402.375C364.371 403.188 364.733 403.904 365.291 404.345L352.991 427.773L348.312 436.687C348.033 436.553 347.73 436.472 347.407 436.472C346.261 436.472 345.317 437.43 345.204 438.658L311.251 438.658C311.222 438.335 311.134 438.028 310.997 437.748ZM426.057 437.748C425.68 436.989 424.95 436.472 424.109 436.472C423.785 436.472 423.477 436.553 423.203 436.687L406.224 404.345C406.777 403.904 407.144 403.188 407.144 402.375C407.144 401.562 406.782 400.846 406.224 400.405L423.198 368.068C423.477 368.203 423.781 368.283 424.104 368.283C424.637 368.283 425.131 368.073 425.513 367.724C425.954 367.325 426.252 366.749 426.311 366.092L460.254 366.092C460.357 367.239 461.189 368.154 462.232 368.267C462.305 368.273 462.384 368.278 462.457 368.278C462.535 368.278 462.609 368.273 462.682 368.267C462.922 368.24 463.152 368.17 463.362 368.063L480.341 400.405C480.302 400.437 480.263 400.464 480.229 400.496C479.735 400.943 479.421 401.616 479.421 402.375C479.421 403.188 479.783 403.904 480.341 404.345L463.367 436.682C463.093 436.547 462.785 436.467 462.467 436.467C461.933 436.467 461.439 436.677 461.057 437.026C460.617 437.425 460.318 438.001 460.259 438.658L426.316 438.658C426.282 438.335 426.194 438.028 426.057 437.748ZM345.826 -70.8106C346.227 -70.3692 346.78 -70.1001 347.392 -70.1001C347.715 -70.1001 348.023 -70.1809 348.298 -70.3154L365.277 -37.9733C364.719 -37.5319 364.356 -36.816 364.356 -36.0031C364.356 -35.1903 364.719 -34.4743 365.277 -34.0329L352.977 -10.6054L348.298 -1.69081C348.019 -1.82539 347.715 -1.90608 347.392 -1.90608C346.247 -1.90608 345.302 -0.948013 345.19 0.284775L311.236 0.284776C311.207 -0.0435927 311.119 -0.355788 310.982 -0.630324C310.605 -1.38936 309.876 -1.90608 309.034 -1.90608C308.711 -1.90608 308.403 -1.82539 308.128 -1.69081L291.149 -34.0329C291.707 -34.4743 292.07 -35.1903 292.07 -36.0031C292.07 -36.816 291.707 -37.5319 291.149 -37.9733L308.128 -70.3154C308.407 -70.1809 308.711 -70.1001 309.034 -70.1001C310.179 -70.1001 311.124 -71.0582 311.236 -72.291L345.19 -72.291C345.239 -71.715 345.473 -71.1982 345.826 -70.8106ZM173.226 38.796C173.628 39.2374 174.181 39.5066 174.792 39.5066C175.115 39.5066 175.424 39.4311 175.698 39.2912L192.677 71.6333C192.119 72.0747 191.757 72.7906 191.757 73.6034C191.757 74.4163 192.119 75.1324 192.677 75.5738L179.55 100.584L175.703 107.916C175.424 107.781 175.12 107.7 174.797 107.7C173.652 107.7 172.707 108.659 172.595 109.886L138.642 109.886C138.612 109.558 138.524 109.251 138.387 108.971C138.01 108.212 137.281 107.695 136.439 107.695C136.116 107.695 135.808 107.771 135.534 107.911L118.555 75.5684C119.113 75.1269 119.475 74.4111 119.475 73.5982C119.475 72.7853 119.113 72.0693 118.555 71.6279L135.534 39.2858C135.813 39.4257 136.116 39.5012 136.439 39.5012C137.584 39.5012 138.529 38.543 138.642 37.3156L172.595 37.3156C172.644 37.8916 172.879 38.4084 173.226 38.796ZM195.932 437.753C195.56 436.994 194.826 436.477 193.989 436.477C193.666 436.477 193.357 436.553 193.083 436.693L176.104 404.351C176.657 403.909 177.024 403.193 177.024 402.38C177.024 401.567 176.662 400.852 176.104 400.41L193.083 368.068C193.362 368.203 193.666 368.283 193.989 368.283C195.134 368.283 196.079 367.325 196.191 366.098L230.139 366.098C230.164 366.345 230.218 366.577 230.301 366.798C230.33 366.873 230.36 366.943 230.394 367.013C230.771 367.772 231.5 368.289 232.337 368.289C232.66 368.289 232.968 368.208 233.243 368.073L250.217 400.41C249.659 400.852 249.297 401.567 249.297 402.38C249.297 402.714 249.36 403.037 249.473 403.328C249.629 403.742 249.889 404.092 250.217 404.356L233.238 436.698C232.959 436.563 232.655 436.483 232.332 436.483C231.182 436.483 230.242 437.446 230.13 438.674L196.176 438.674C196.157 438.34 196.069 438.028 195.932 437.753ZM422.821 510.001C422.263 510.442 421.901 511.158 421.901 511.971C421.901 512.784 422.263 513.5 422.821 513.941L405.842 546.283C405.563 546.149 405.26 546.068 404.937 546.068C404.555 546.068 404.198 546.176 403.884 546.364C403.258 546.741 402.813 547.441 402.739 548.259L368.786 548.259C368.752 547.898 368.649 547.564 368.487 547.268C368.101 546.552 367.396 546.068 366.583 546.068C366.26 546.068 365.952 546.143 365.678 546.283L348.699 513.941C349.257 513.5 349.619 512.784 349.619 511.971C349.619 511.158 349.257 510.442 348.699 510.001L365.678 477.659C365.957 477.793 366.26 477.874 366.583 477.874C367.729 477.874 368.673 476.916 368.786 475.688L402.739 475.688C402.769 476.017 402.857 476.324 402.994 476.603C403.366 477.363 404.1 477.879 404.937 477.879C405.26 477.879 405.568 477.804 405.842 477.664L422.821 510.001ZM405.842 473.223C405.563 473.088 405.26 473.008 404.937 473.008C403.791 473.008 402.847 473.966 402.734 475.193L368.781 475.193C368.752 474.865 368.664 474.558 368.527 474.278C368.155 473.519 367.42 473.002 366.583 473.002C366.26 473.002 365.952 473.077 365.678 473.217L348.699 440.875C349.257 440.434 349.619 439.718 349.619 438.905C349.619 438.092 349.257 437.376 348.699 436.935L365.678 404.593C365.957 404.727 366.26 404.808 366.583 404.808C367.729 404.808 368.673 403.85 368.786 402.617L402.739 402.617C402.852 403.845 403.791 404.808 404.942 404.808C405.02 404.808 405.093 404.803 405.167 404.797C405.407 404.771 405.637 404.701 405.847 404.593L422.826 436.935C422.268 437.376 421.906 438.092 421.906 438.905C421.906 439.492 422.097 440.036 422.41 440.456C422.533 440.617 422.67 440.757 422.826 440.881L405.842 473.223ZM463.749 440.886C463.788 440.854 463.827 440.822 463.867 440.789C464.361 440.342 464.679 439.664 464.679 438.905C464.679 438.092 464.317 437.376 463.759 436.935L480.733 404.598C481.007 404.733 481.315 404.814 481.639 404.814C482.177 404.814 482.666 404.604 483.048 404.254C483.484 403.861 483.782 403.279 483.846 402.628L517.789 402.628C517.828 403.053 517.966 403.446 518.181 403.78C518.582 404.404 519.243 404.819 519.992 404.819C520.315 404.819 520.623 404.738 520.897 404.604L537.876 436.946C537.318 437.387 536.956 438.103 536.956 438.916C536.956 439.503 537.147 440.041 537.46 440.466C537.583 440.628 537.72 440.768 537.876 440.892L520.897 473.234C520.618 473.099 520.315 473.018 519.992 473.018C518.846 473.018 517.902 473.976 517.789 475.204L483.836 475.204C483.724 473.976 482.784 473.018 481.634 473.018C481.311 473.018 481.002 473.099 480.728 473.234L463.749 440.886ZM595.406 473.476C594.848 473.917 594.486 474.633 594.486 475.446C594.486 476.259 594.848 476.975 595.406 477.416L578.427 509.758C578.148 509.624 577.845 509.543 577.522 509.543C576.377 509.543 575.432 510.501 575.319 511.729L541.366 511.729C541.254 510.501 540.314 509.543 539.164 509.543C538.841 509.543 538.532 509.624 538.258 509.758L521.279 477.416C521.837 476.975 522.199 476.259 522.199 475.446C522.199 474.633 521.837 473.917 521.279 473.476L538.258 441.134C538.537 441.274 538.841 441.349 539.164 441.349C540.309 441.349 541.254 440.391 541.366 439.164L575.319 439.164C575.432 440.391 576.377 441.349 577.522 441.349C577.845 441.349 578.153 441.274 578.427 441.134L595.406 473.476ZM578.427 436.698C578.148 436.563 577.845 436.483 577.522 436.483C577.14 436.483 576.783 436.59 576.469 436.779C575.843 437.156 575.398 437.855 575.324 438.674L541.371 438.674C541.337 438.313 541.234 437.979 541.072 437.683C540.686 436.967 539.981 436.483 539.169 436.483C538.845 436.483 538.537 436.563 538.263 436.698L521.284 404.356C521.842 403.915 522.204 403.199 522.204 402.386C522.204 401.573 521.842 400.857 521.284 400.416L538.263 368.073C538.542 368.213 538.845 368.289 539.169 368.289C540.314 368.289 541.258 367.331 541.371 366.103L575.324 366.103C575.354 366.432 575.442 366.738 575.579 367.018C575.818 367.503 576.2 367.885 576.665 368.1C576.93 368.224 577.223 368.294 577.527 368.294C577.85 368.294 578.153 368.213 578.432 368.079L595.406 400.416C594.848 400.857 594.486 401.573 594.486 402.386C594.486 403.199 594.848 403.915 595.406 404.356L578.427 436.698ZM632.854 402.138L598.901 402.138C598.818 401.239 598.289 400.48 597.56 400.141C597.296 400.017 597.002 399.947 596.694 399.947C596.37 399.947 596.067 400.023 595.788 400.163L578.814 367.826C579.372 367.384 579.734 366.668 579.734 365.856C579.734 365.043 579.372 364.327 578.814 363.885L595.793 331.543C595.808 331.549 595.822 331.559 595.832 331.565C596.096 331.689 596.39 331.759 596.698 331.759C597.844 331.759 598.788 330.8 598.901 329.573L632.849 329.573C632.932 330.472 633.461 331.226 634.19 331.565C634.455 331.689 634.748 331.759 635.057 331.759C635.38 331.759 635.683 331.683 635.962 331.543L652.936 363.88C652.378 364.321 652.016 365.037 652.016 365.85C652.016 366.663 652.383 367.384 652.941 367.826L635.962 400.168C635.683 400.033 635.38 399.953 635.057 399.953C633.911 399.953 632.967 400.911 632.854 402.138ZM710.466 327.35C709.908 327.791 709.546 328.507 709.546 329.32C709.546 330.133 709.908 330.849 710.466 331.29L693.487 363.632C693.208 363.498 692.905 363.417 692.582 363.417C691.436 363.417 690.492 364.375 690.379 365.603L656.431 365.603C656.348 364.704 655.819 363.945 655.09 363.605C654.826 363.482 654.532 363.412 654.228 363.412C653.905 363.412 653.602 363.487 653.323 363.627L636.349 331.29C636.907 330.849 637.269 330.133 637.269 329.32C637.269 328.507 636.902 327.786 636.344 327.344L653.323 295.002C653.602 295.137 653.905 295.218 654.228 295.218C655.374 295.218 656.318 294.259 656.431 293.032L690.384 293.032C690.497 294.259 691.436 295.218 692.587 295.218C692.91 295.218 693.218 295.142 693.492 295.002L710.466 327.35ZM652.936 290.814C652.378 291.256 652.016 291.972 652.016 292.785C652.016 293.597 652.378 294.313 652.936 294.755L635.957 327.097C635.943 327.091 635.933 327.081 635.918 327.075C635.654 326.951 635.36 326.881 635.052 326.881C633.906 326.881 632.962 327.84 632.849 329.067L598.901 329.067C598.828 328.249 598.382 327.549 597.751 327.172C597.437 326.984 597.075 326.876 596.694 326.876C596.37 326.876 596.062 326.957 595.788 327.091L578.809 294.749C579.367 294.308 579.729 293.587 579.729 292.779C579.729 291.966 579.367 291.25 578.809 290.809L595.788 258.467C596.067 258.601 596.37 258.682 596.694 258.682C597.839 258.682 598.783 257.724 598.896 256.496L632.849 256.496C632.962 257.724 633.906 258.682 635.052 258.682C635.375 258.682 635.683 258.607 635.957 258.467L652.936 290.814ZM595.406 254.284C594.848 254.726 594.486 255.441 594.486 256.254C594.486 257.008 594.799 257.686 595.294 258.133C595.328 258.165 595.372 258.198 595.406 258.225L578.427 290.567C578.148 290.427 577.845 290.351 577.522 290.351C576.377 290.351 575.432 291.31 575.319 292.537L541.366 292.537C541.254 291.31 540.314 290.351 539.164 290.351C538.841 290.351 538.532 290.427 538.258 290.567L521.279 258.225C521.837 257.783 522.199 257.067 522.199 256.254C522.199 255.915 522.136 255.592 522.023 255.296C521.866 254.887 521.607 254.537 521.284 254.273L538.258 221.937C538.537 222.071 538.841 222.152 539.164 222.152C540.309 222.152 541.254 221.194 541.366 219.966L575.314 219.966C575.339 220.214 575.398 220.456 575.486 220.677C575.823 221.544 576.607 222.152 577.517 222.152C577.84 222.152 578.148 222.077 578.422 221.937L595.406 254.284ZM595.401 181.213C594.843 181.654 594.481 182.37 594.481 183.183C594.481 183.996 594.843 184.712 595.401 185.154L578.422 217.495C578.143 217.356 577.84 217.28 577.517 217.28C576.372 217.28 575.427 218.238 575.314 219.466L541.366 219.466C541.337 219.137 541.244 218.831 541.112 218.556C541.112 218.556 541.112 218.551 541.107 218.551C540.735 217.792 540.001 217.28 539.164 217.28C538.841 217.28 538.532 217.356 538.258 217.495L521.279 185.154C521.837 184.712 522.199 183.996 522.199 183.183C522.199 182.37 521.837 181.654 521.279 181.213L538.258 148.871C538.537 149.011 538.841 149.086 539.164 149.086C540.309 149.086 541.254 148.128 541.366 146.901L575.319 146.901C575.349 147.229 575.437 147.536 575.574 147.816C575.946 148.575 576.68 149.092 577.517 149.092C577.84 149.092 578.148 149.016 578.422 148.876L595.401 181.213ZM578.422 144.435C578.143 144.301 577.84 144.22 577.517 144.22C576.372 144.22 575.427 145.178 575.314 146.405L541.361 146.405C541.332 146.077 541.244 145.77 541.107 145.49C540.73 144.731 540.001 144.215 539.164 144.215C538.841 144.215 538.532 144.295 538.258 144.43L521.279 112.088C521.837 111.646 522.199 110.93 522.199 110.118C522.199 109.305 521.837 108.589 521.279 108.147L522.14 106.505L538.253 75.8052C538.532 75.9452 538.836 76.0206 539.159 76.0206C540.304 76.0206 541.249 75.0624 541.361 73.835L575.314 73.835C575.368 74.411 575.598 74.9224 575.951 75.31C576.352 75.7514 576.905 76.0206 577.517 76.0206C577.84 76.0206 578.148 75.9452 578.422 75.8052L595.401 108.147C594.843 108.589 594.481 109.305 594.481 110.118C594.481 110.704 594.672 111.243 594.985 111.668C595.108 111.829 595.245 111.969 595.401 112.093L578.422 144.435ZM652.936 71.6171C652.378 72.0585 652.016 72.7746 652.016 73.5874C652.016 74.4002 652.378 75.1162 652.936 75.563L635.957 107.905C635.678 107.771 635.375 107.69 635.052 107.69C633.906 107.69 632.962 108.648 632.849 109.875L598.896 109.875C598.867 109.547 598.779 109.24 598.642 108.96C598.27 108.201 597.535 107.69 596.698 107.69C596.375 107.69 596.067 107.765 595.793 107.905L578.814 75.563C579.372 75.1216 579.734 74.4002 579.734 73.5874C579.734 72.7746 579.372 72.0585 578.814 71.6171L595.793 39.2751C596.072 39.4097 596.375 39.4904 596.698 39.4904C597.844 39.4904 598.788 38.5321 598.901 37.3048L632.854 37.3048C632.967 38.5321 633.911 39.4904 635.057 39.4904C635.38 39.4904 635.688 39.4097 635.962 39.2751L652.936 71.6171ZM538.258 2.73948C538.537 2.87406 538.841 2.95475 539.164 2.95475C540.309 2.95475 541.254 1.99668 541.366 0.769324L575.319 0.769323C575.432 1.99668 576.376 2.95475 577.522 2.95475C577.845 2.95475 578.153 2.87406 578.427 2.73948L595.406 35.0816C594.848 35.523 594.486 36.2389 594.486 37.0518C594.486 37.8055 594.799 38.4837 595.294 38.9305C595.333 38.9628 595.367 38.9951 595.406 39.022L578.427 71.3641C578.148 71.2295 577.845 71.1488 577.522 71.1488C576.377 71.1488 575.432 72.1069 575.319 73.3343L541.366 73.3343C541.254 72.1069 540.309 71.1488 539.164 71.1488C538.841 71.1488 538.532 71.2295 538.258 71.3641L521.279 39.022C521.837 38.5805 522.199 37.8647 522.199 37.0518C522.199 36.3789 521.95 35.7706 521.553 35.3292C521.47 35.2377 521.377 35.157 521.279 35.0762L538.258 2.73948ZM480.341 35.0816C479.783 35.5231 479.421 36.2389 479.421 37.0518C479.421 37.8055 479.735 38.4837 480.229 38.9305C480.263 38.9628 480.302 38.9951 480.341 39.022L463.362 71.3641C463.083 71.2295 462.78 71.1488 462.457 71.1488C461.312 71.1488 460.367 72.1069 460.254 73.3343L426.301 73.3343C426.189 72.1069 425.249 71.1488 424.099 71.1488C423.776 71.1488 423.467 71.2295 423.193 71.3641L406.219 39.022C406.542 38.7636 406.802 38.4137 406.963 37.9992C407.076 37.7085 407.139 37.3855 407.139 37.0464C407.139 36.2336 406.777 35.5176 406.219 35.0762L423.193 2.73948C423.472 2.87407 423.776 2.95475 424.099 2.95475C424.941 2.95475 425.675 2.43809 426.047 1.67363C426.184 1.39909 426.272 1.09233 426.301 0.76933L460.249 0.769328C460.362 1.99668 461.302 2.95475 462.452 2.95475C462.775 2.95475 463.088 2.87406 463.367 2.73411L480.341 35.0816ZM480.337 -37.9733C479.779 -37.5319 479.416 -36.816 479.416 -36.0031C479.416 -35.1903 479.779 -34.4743 480.337 -34.0329L463.362 -1.69619C463.083 -1.8362 462.78 -1.91152 462.457 -1.91152C461.615 -1.91152 460.881 -1.3948 460.509 -0.63033C460.372 -0.355794 460.284 -0.0490314 460.254 0.279338L426.306 0.279339C426.194 -0.948017 425.254 -1.90609 424.104 -1.90609C423.776 -1.90609 423.472 -1.8254 423.193 -1.68544L406.219 -34.0222C406.777 -34.4636 407.139 -35.1795 407.139 -35.9923C407.139 -36.8052 406.777 -37.5213 406.219 -37.9627L423.193 -70.2993C423.472 -70.1593 423.781 -70.0786 424.108 -70.0786C425.254 -70.0786 426.198 -71.0368 426.311 -72.2642L460.259 -72.2642C460.284 -72.0219 460.338 -71.7904 460.421 -71.5697C460.754 -70.6923 461.542 -70.0732 462.462 -70.0732C462.785 -70.0732 463.093 -70.1539 463.367 -70.2885L480.337 -37.9733ZM423.193 -143.37C423.472 -143.236 423.776 -143.155 424.099 -143.155C425.244 -143.155 426.189 -144.113 426.301 -145.341L460.254 -145.341C460.367 -144.113 461.312 -143.155 462.457 -143.155C462.78 -143.155 463.088 -143.236 463.362 -143.37L480.341 -111.028C479.783 -110.587 479.421 -109.871 479.421 -109.058C479.421 -108.245 479.783 -107.529 480.341 -107.088L463.367 -74.7511C463.088 -74.8911 462.78 -74.9719 462.452 -74.9719C461.307 -74.9719 460.362 -74.0137 460.249 -72.7863L426.301 -72.7863C426.277 -73.0286 426.223 -73.2655 426.14 -73.4808C426.027 -73.7769 425.866 -74.0406 425.665 -74.2613C425.264 -74.7027 424.711 -74.9719 424.099 -74.9719C423.776 -74.9719 423.467 -74.8965 423.193 -74.7565L406.219 -107.088C406.777 -107.529 407.139 -108.251 407.139 -109.058C407.139 -109.397 407.076 -109.715 406.963 -110.006C406.806 -110.42 406.547 -110.77 406.219 -111.034L423.193 -143.37ZM365.658 -106.846C365.932 -106.711 366.241 -106.63 366.564 -106.63C367.709 -106.63 368.654 -107.588 368.766 -108.816L402.72 -108.816C402.739 -108.568 402.798 -108.331 402.881 -108.111C403.214 -107.233 404.002 -106.619 404.922 -106.619C405.245 -106.619 405.553 -106.7 405.828 -106.835L422.802 -74.5036C422.249 -74.0621 421.882 -73.3462 421.882 -72.5333C421.882 -72.1942 421.945 -71.8712 422.058 -71.5805C422.214 -71.1714 422.474 -70.816 422.797 -70.5576L405.823 -38.221C405.544 -38.3556 405.24 -38.4363 404.917 -38.4363C403.772 -38.4363 402.827 -37.4781 402.715 -36.2508L368.762 -36.2507C368.649 -37.4781 367.709 -38.4363 366.559 -38.4363C366.236 -38.4363 365.928 -38.361 365.653 -38.221L348.674 -70.563C349.232 -71.0044 349.595 -71.7205 349.595 -72.5333C349.595 -73.2063 349.345 -73.8145 348.944 -74.2559C348.86 -74.3474 348.767 -74.4335 348.67 -74.5089L365.658 -106.846ZM233.619 -70.563C234.177 -71.0044 234.54 -71.7205 234.54 -72.5333C234.54 -73.3462 234.177 -74.0621 233.619 -74.5036L250.598 -106.846C250.877 -106.711 251.181 -106.63 251.504 -106.63C252.649 -106.63 253.594 -107.588 253.706 -108.816L287.66 -108.816C287.772 -107.588 288.717 -106.63 289.862 -106.63C290.185 -106.63 290.494 -106.711 290.768 -106.846L307.742 -74.5036C307.184 -74.0621 306.822 -73.3462 306.822 -72.5333C306.822 -71.7797 307.135 -71.1014 307.629 -70.6546C307.663 -70.6223 307.707 -70.5899 307.742 -70.563L290.763 -38.221C290.484 -38.3556 290.18 -38.4363 289.857 -38.4363C288.712 -38.4363 287.767 -37.4781 287.655 -36.2507L253.702 -36.2507C253.589 -37.4781 252.644 -38.4363 251.499 -38.4363C251.176 -38.4363 250.868 -38.361 250.594 -38.221L233.619 -70.563ZM250.598 -33.7853C250.877 -33.6508 251.181 -33.5699 251.504 -33.5699C252.649 -33.5699 253.594 -34.5281 253.706 -35.7555L287.66 -35.7555C287.713 -35.1795 287.943 -34.6681 288.296 -34.2805C288.697 -33.8391 289.25 -33.5699 289.862 -33.5699C290.185 -33.5699 290.494 -33.6453 290.768 -33.7853L307.747 -1.44319C307.189 -1.00178 306.826 -0.285902 306.826 0.526964C306.826 1.11376 307.017 1.65215 307.331 2.07738C307.453 2.23888 307.59 2.37889 307.747 2.50267L290.768 34.8447C290.489 34.7101 290.185 34.6294 289.862 34.6294C288.869 34.6294 288.027 35.3507 287.748 36.3466C287.704 36.4973 287.674 36.6535 287.66 36.8204L253.711 36.8204C253.599 35.593 252.654 34.6348 251.509 34.6348C251.186 34.6348 250.877 34.7154 250.603 34.85L233.629 2.51348C234.011 2.20665 234.305 1.77593 234.447 1.26452C234.51 1.03307 234.549 0.790761 234.549 0.532338C234.549 -0.280467 234.187 -0.996409 233.629 -1.43782L250.598 -33.7853ZM193.064 2.7611C193.343 2.89568 193.646 2.97637 193.969 2.97637C195.114 2.97637 196.059 2.01824 196.172 0.790885L230.125 0.790883C230.237 2.01824 231.177 2.97637 232.327 2.97637C232.65 2.97637 232.959 2.90105 233.233 2.7611L250.207 35.0978C249.879 35.3562 249.62 35.7114 249.463 36.1259C249.35 36.4166 249.287 36.7396 249.287 37.0734C249.287 37.827 249.6 38.5053 250.094 38.9521C250.129 38.9844 250.168 39.0167 250.207 39.0436L233.228 71.3857C232.949 71.2457 232.645 71.1704 232.322 71.1704C231.177 71.1704 230.232 72.1285 230.12 73.3558L196.167 73.3558C196.054 72.1285 195.114 71.1704 193.964 71.1704C193.641 71.1704 193.333 71.2457 193.059 71.3857L176.08 39.0436C176.638 38.6022 177 37.8862 177 37.0734C177 36.4004 176.75 35.7922 176.354 35.3508C176.271 35.2593 176.178 35.1731 176.085 35.0978L193.064 2.7611ZM61.0197 39.0436C61.5777 38.6022 61.9399 37.8862 61.9399 37.0734C61.9399 36.2605 61.5777 35.5446 61.0197 35.1032L77.9987 2.7611C78.2777 2.89569 78.5812 2.97638 78.9042 2.97638C80.0495 2.97638 80.9942 2.01825 81.1067 0.79089L115.06 0.790889C115.172 2.01824 116.117 2.97637 117.262 2.97637C117.585 2.97637 117.894 2.90106 118.168 2.7611L135.147 35.1032C134.589 35.5446 134.227 36.2605 134.227 37.0734C134.227 37.827 134.54 38.5053 135.034 38.9521C135.069 38.9844 135.108 39.0167 135.147 39.0436L118.168 71.3857C117.894 71.2457 117.585 71.1704 117.262 71.1704C116.117 71.1704 115.172 72.1285 115.06 73.3558L81.1067 73.3558C80.9942 72.1285 80.0544 71.1704 78.9042 71.1704C78.5812 71.1704 78.2728 71.2457 77.9987 71.3857L61.0197 39.0436ZM61.0197 112.109C61.5777 111.668 61.9399 110.952 61.9399 110.139C61.9399 109.326 61.5777 108.61 61.0197 108.169L77.9987 75.8268C78.2777 75.9667 78.5812 76.042 78.9042 76.042C80.0495 76.042 80.9942 75.084 81.1067 73.8566L115.06 73.8566C115.114 74.4326 115.344 74.944 115.696 75.3316C116.098 75.773 116.651 76.042 117.262 76.042C117.585 76.042 117.894 75.9667 118.168 75.8268L135.147 108.169C134.589 108.61 134.227 109.326 134.227 110.139C134.227 110.726 134.418 111.264 134.731 111.689C134.853 111.851 134.99 111.991 135.147 112.115L118.168 144.457C117.889 144.317 117.585 144.241 117.262 144.241C116.117 144.241 115.172 145.2 115.06 146.427L81.1068 146.427C80.9942 145.2 80.0544 144.241 78.9042 144.241C78.5812 144.241 78.2728 144.317 77.9987 144.457L61.0197 112.109ZM118.555 148.639C119.113 148.198 119.475 147.482 119.475 146.669C119.475 145.856 119.113 145.14 118.555 144.699L135.534 112.357C135.813 112.492 136.116 112.572 136.439 112.572C137.584 112.572 138.529 111.614 138.642 110.387L172.595 110.387C172.707 111.614 173.647 112.572 174.797 112.572C175.12 112.572 175.429 112.492 175.703 112.357L192.682 144.699C192.124 145.14 191.762 145.856 191.762 146.669C191.762 147.423 192.075 148.101 192.569 148.548C192.603 148.58 192.643 148.613 192.682 148.639L175.703 180.982C175.424 180.842 175.12 180.766 174.797 180.766C173.652 180.766 172.707 181.724 172.595 182.952L138.642 182.952C138.529 181.724 137.589 180.766 136.439 180.766C136.116 180.766 135.808 180.842 135.534 180.982L118.555 148.639ZM135.529 185.417C135.808 185.552 136.111 185.633 136.434 185.633C137.58 185.633 138.524 184.674 138.637 183.447L172.59 183.447C172.644 184.023 172.874 184.534 173.226 184.922C173.628 185.363 174.181 185.633 174.792 185.633C175.115 185.633 175.424 185.552 175.698 185.417L192.677 217.759C192.119 218.201 191.757 218.917 191.757 219.73C191.757 220.316 191.948 220.86 192.261 221.28C192.383 221.441 192.52 221.581 192.677 221.705L175.708 254.031C175.434 253.897 175.13 253.821 174.812 253.821C174.352 253.821 173.926 253.977 173.574 254.236C173.035 254.629 172.663 255.269 172.595 256.007L138.661 256.007C138.607 255.431 138.377 254.919 138.025 254.532C137.624 254.09 137.07 253.816 136.459 253.816C136.136 253.816 135.827 253.897 135.553 254.031L118.574 221.689C119.132 221.248 119.494 220.532 119.494 219.719C119.494 218.901 119.127 218.179 118.564 217.743L135.529 185.417ZM78.0183 221.937C78.2973 222.077 78.6008 222.152 78.9238 222.152C80.0691 222.152 81.0138 221.194 81.1263 219.966L115.06 219.966C115.168 221.199 116.112 222.168 117.262 222.168C117.585 222.168 117.894 222.087 118.168 221.953L135.147 254.295C134.589 254.736 134.227 255.452 134.227 256.265C134.227 257.083 134.594 257.805 135.157 258.241L118.188 290.561C117.909 290.427 117.605 290.346 117.282 290.346C116.137 290.346 115.192 291.304 115.079 292.532L81.1263 292.532C81.0138 291.304 80.074 290.346 78.9238 290.346C78.6008 290.346 78.2924 290.421 78.0183 290.561L61.0442 258.219C61.6022 257.778 61.9644 257.062 61.9644 256.249C61.9644 256.163 61.9595 256.082 61.9546 256.001C61.8909 255.291 61.5434 254.672 61.0442 254.279L78.0183 221.937ZM3.50934 294.76C4.06732 294.319 4.42951 293.603 4.42951 292.79C4.42951 291.977 4.06732 291.261 3.50934 290.82L20.4884 258.478C20.7673 258.618 21.0708 258.693 21.3938 258.693C22.5392 258.693 23.4838 257.735 23.5964 256.507L57.5495 256.507C57.6621 257.735 58.6018 258.693 59.7521 258.693C60.0751 258.693 60.3834 258.618 60.6575 258.478L77.6317 290.82C77.1324 291.218 76.7898 291.832 76.7262 292.542C76.7213 292.623 76.7164 292.709 76.7164 292.79C76.7164 293.603 77.0786 294.319 77.6366 294.76L60.6624 327.102C60.3834 326.968 60.08 326.887 59.757 326.887C58.6116 326.887 57.667 327.845 57.5544 329.078L23.6013 329.078C23.4887 327.85 22.5441 326.892 21.3987 326.892C21.0757 326.892 20.7674 326.968 20.4933 327.108L3.50934 294.76ZM61.0442 331.29C61.5973 330.849 61.9644 330.133 61.9644 329.32C61.9644 328.507 61.6022 327.791 61.0442 327.35L78.0232 295.008C78.3022 295.142 78.6057 295.223 78.9287 295.223C80.074 295.223 81.0187 294.265 81.1312 293.038L81.1312 293.032L115.084 293.032C115.138 293.608 115.368 294.12 115.721 294.507C116.122 294.949 116.675 295.218 117.287 295.218C117.61 295.218 117.918 295.142 118.192 295.002L135.171 327.344C134.613 327.786 134.251 328.502 134.251 329.315C134.251 329.901 134.442 330.44 134.755 330.865C134.878 331.027 135.015 331.167 135.171 331.29L118.192 363.632C117.913 363.498 117.61 363.417 117.287 363.417C116.142 363.417 115.197 364.375 115.084 365.603L81.1312 365.603C81.0187 364.375 80.0789 363.417 78.9287 363.417C78.6057 363.417 78.2973 363.498 78.0232 363.632L61.0442 331.29ZM118.574 367.82C119.132 367.379 119.494 366.663 119.494 365.85C119.494 365.037 119.132 364.321 118.574 363.88L135.553 331.538C135.832 331.673 136.136 331.753 136.459 331.753C137.604 331.753 138.549 330.795 138.661 329.568L172.614 329.568C172.727 330.795 173.667 331.753 174.817 331.753C175.14 331.753 175.448 331.673 175.722 331.538L192.701 363.88C192.143 364.321 191.781 365.037 191.781 365.85C191.781 366.609 192.094 367.282 192.589 367.729C192.623 367.761 192.662 367.794 192.701 367.82L175.722 400.163C175.443 400.028 175.14 399.947 174.817 399.947C173.672 399.947 172.727 400.905 172.614 402.133L138.661 402.133C138.549 400.905 137.609 399.947 136.459 399.947C136.136 399.947 135.827 400.023 135.553 400.163L118.574 367.82ZM175.717 473.228C175.438 473.094 175.135 473.013 174.812 473.013C173.667 473.013 172.722 473.971 172.609 475.198L138.656 475.198C138.544 473.971 137.599 473.013 136.454 473.013C136.131 473.013 135.822 473.094 135.548 473.228L118.569 440.886C119.127 440.445 119.489 439.729 119.489 438.916C119.489 438.103 119.127 437.387 118.569 436.946L135.548 404.604C135.827 404.738 136.131 404.819 136.454 404.819C137.599 404.819 138.544 403.861 138.656 402.633L172.609 402.633C172.663 403.209 172.893 403.721 173.246 404.108C173.647 404.55 174.2 404.824 174.812 404.824C175.135 404.824 175.443 404.749 175.717 404.609L192.696 436.951C192.139 437.393 191.776 438.108 191.776 438.921C191.776 439.508 191.967 440.046 192.28 440.472C192.403 440.633 192.54 440.773 192.696 440.897L175.717 473.228ZM233.634 440.886C234.192 440.445 234.554 439.729 234.554 438.916C234.554 438.577 234.491 438.259 234.378 437.968C234.221 437.554 233.957 437.204 233.634 436.94L250.613 404.604C250.892 404.738 251.196 404.819 251.519 404.819C252.664 404.819 253.609 403.855 253.721 402.628L287.669 402.628C287.782 403.855 288.722 404.819 289.872 404.819C289.95 404.819 290.024 404.814 290.097 404.808C290.337 404.781 290.567 404.711 290.777 404.604L307.756 436.946C307.198 437.387 306.836 438.103 306.836 438.916C306.836 439.503 307.027 440.046 307.34 440.466C307.463 440.628 307.6 440.768 307.756 440.892L290.777 473.234C290.503 473.099 290.195 473.018 289.872 473.018C288.727 473.018 287.782 473.976 287.669 475.204L253.716 475.204C253.604 473.976 252.664 473.018 251.514 473.018C251.191 473.018 250.882 473.094 250.608 473.234L233.634 440.886ZM291.164 477.411C291.722 476.97 292.084 476.254 292.084 475.441C292.084 474.628 291.722 473.912 291.164 473.47L308.143 441.128C308.422 441.263 308.726 441.344 309.049 441.344C310.194 441.344 311.139 440.386 311.251 439.158L345.204 439.158C345.307 440.305 346.139 441.215 347.182 441.333C347.255 441.344 347.333 441.344 347.407 441.344C347.485 441.344 347.559 441.338 347.632 441.333C347.872 441.306 348.102 441.236 348.312 441.128L365.291 473.47C364.733 473.912 364.371 474.633 364.371 475.441C364.371 476.194 364.684 476.873 365.179 477.319C365.213 477.352 365.257 477.384 365.291 477.411L348.312 509.753C348.033 509.618 347.73 509.538 347.407 509.538C346.262 509.538 345.317 510.496 345.204 511.723L311.251 511.723C311.139 510.496 310.199 509.538 309.049 509.538C308.726 509.538 308.417 509.618 308.143 509.753L291.164 477.411ZM291.164 550.477C291.722 550.035 292.084 549.319 292.084 548.506C292.084 547.694 291.722 546.978 291.164 546.536L308.143 514.194C308.422 514.329 308.726 514.409 309.049 514.409C310.194 514.409 311.139 513.451 311.251 512.218L345.204 512.218C345.243 512.644 345.385 513.037 345.596 513.371C345.997 513.995 346.658 514.404 347.407 514.404C347.73 514.404 348.038 514.323 348.312 514.189L365.291 546.531C364.733 546.972 364.371 547.688 364.371 548.501C364.371 549.088 364.562 549.626 364.875 550.051C364.998 550.213 365.135 550.353 365.291 550.477L348.312 582.819C348.033 582.684 347.73 582.603 347.407 582.603C346.262 582.603 345.317 583.562 345.204 584.789L311.251 584.789C311.139 583.562 310.199 582.603 309.049 582.603C308.726 582.603 308.417 582.684 308.143 582.819L291.164 550.477ZM348.694 587.007C349.252 586.565 349.614 585.849 349.614 585.037C349.614 584.224 349.252 583.508 348.694 583.066L365.673 550.724C365.952 550.859 366.256 550.94 366.579 550.94C367.724 550.94 368.669 549.981 368.781 548.754L402.734 548.754C402.847 549.981 403.787 550.94 404.937 550.94C405.26 550.94 405.568 550.859 405.842 550.724L422.821 583.066C422.263 583.508 421.901 584.224 421.901 585.037C421.901 585.849 422.263 586.565 422.821 587.007L405.842 619.349C405.563 619.214 405.26 619.134 404.937 619.134C403.791 619.134 402.847 620.092 402.734 621.319L368.781 621.319C368.669 620.092 367.729 619.134 366.579 619.134C366.256 619.134 365.947 619.209 365.673 619.349L348.694 587.007Z" fill="url(#paint0_linear_3429_218)"/>
<defs>
<linearGradient id="paint0_linear_3429_218" x1="64.2483" y1="75.8896" x2="388.303" y2="-269.976" gradientUnits="userSpaceOnUse">
<stop stop-color="#4D9CFE" stop-opacity="0"/>
<stop offset="0.934746" stop-color="#4D9CFE" stop-opacity="0.77"/>
</linearGradient>
</defs>
</svg>
