<svg width="634" height="513" viewBox="0 0 634 513" fill="none" xmlns="http://www.w3.org/2000/svg">
<path d="M265.733 -256.814L231.826 -256.814C231.714 -258.042 230.776 -259 229.627 -259C228.405 -259 227.418 -257.913 227.418 -256.567C227.418 -255.754 227.779 -255.038 228.337 -254.597L211.381 -222.254C211.102 -222.394 210.799 -222.469 210.477 -222.469C209.255 -222.469 208.268 -221.382 208.268 -220.036C208.268 -218.69 209.255 -217.603 210.477 -217.603C210.799 -217.603 211.107 -217.684 211.381 -217.818L228.337 -185.476C227.779 -185.034 227.418 -184.318 227.418 -183.505C227.418 -182.693 227.779 -181.977 228.337 -181.535L211.381 -149.193C211.102 -149.327 210.799 -149.408 210.477 -149.408C209.255 -149.408 208.268 -148.321 208.268 -146.975C208.268 -145.629 209.255 -144.542 210.477 -144.542C210.799 -144.542 211.107 -144.622 211.381 -144.757L228.337 -112.414C227.779 -111.973 227.418 -111.257 227.418 -110.444C227.418 -110.024 227.515 -109.631 227.687 -109.287C227.843 -108.964 228.073 -108.689 228.337 -108.474L211.381 -76.1312C211.102 -76.2658 210.799 -76.3466 210.477 -76.3466C209.333 -76.3466 208.39 -75.3884 208.277 -74.161L174.381 -74.161C174.273 -75.3938 173.33 -76.3574 172.181 -76.3574C171.859 -76.3574 171.551 -76.282 171.277 -76.142L154.321 -108.485C154.879 -108.926 155.24 -109.642 155.24 -110.455C155.24 -111.801 154.253 -112.888 153.031 -112.888C151.887 -112.888 150.944 -111.93 150.832 -110.702L116.925 -110.702C116.813 -111.93 115.874 -112.888 114.726 -112.888C114.403 -112.888 114.095 -112.807 113.822 -112.673L96.8661 -145.015C97.4233 -145.457 97.7849 -146.173 97.7849 -146.986C97.7849 -148.331 96.7976 -149.419 95.5757 -149.419C94.4319 -149.419 93.4886 -148.461 93.3762 -147.228L59.4699 -147.228C59.3575 -148.455 58.4191 -149.419 57.2704 -149.419C56.0485 -149.419 55.0612 -148.326 55.0612 -146.986C55.0612 -146.173 55.4228 -145.457 55.98 -145.015L39.0244 -112.673C38.7458 -112.807 38.4428 -112.888 38.1202 -112.888C36.8983 -112.888 35.9109 -111.801 35.9109 -110.455C35.9109 -109.109 36.8983 -108.022 38.1202 -108.022C38.4428 -108.022 38.7507 -108.102 39.0244 -108.237L55.98 -75.8944C55.4228 -75.453 55.0611 -74.737 55.0611 -73.9241C55.0611 -73.1113 55.4228 -72.3953 55.98 -71.9539L39.0244 -39.6113C39.0098 -39.6167 38.9951 -39.6275 38.9805 -39.6383C38.7165 -39.7621 38.4233 -39.8321 38.1153 -39.8321C36.9716 -39.8321 36.0282 -38.8738 35.9158 -37.6465L2.00957 -37.6465C1.89715 -38.8738 0.95867 -39.8321 -0.189951 -39.8321C-1.41187 -39.8321 -2.39924 -38.7446 -2.39924 -37.3988C-2.39924 -36.586 -2.03755 -35.87 -1.4803 -35.4286L-18.4359 -3.08603C-18.7145 -3.22061 -19.0175 -3.30137 -19.3401 -3.30137C-20.4838 -3.30137 -21.4272 -2.33777 -21.5396 -1.11038L-55.4411 -1.11038C-55.5535 -2.33777 -56.4919 -3.29599 -57.6405 -3.29599C-58.8624 -3.29599 -59.8497 -2.20859 -59.8497 -0.862762C-59.8497 -0.0498961 -59.488 0.666077 -58.9309 1.10751L-75.8865 33.45C-76.1651 33.3155 -76.4681 33.2347 -76.7907 33.2347C-78.0126 33.2347 -79 34.3221 -79 35.6679C-79 37.0137 -78.0126 38.1012 -76.7907 38.1012C-76.4681 38.1012 -76.1602 38.0204 -75.8865 37.8858L-58.9309 70.2284C-59.4881 70.6698 -59.8497 71.3857 -59.8497 72.1986C-59.8497 73.5444 -58.8624 74.6318 -57.6405 74.6318C-56.4968 74.6318 -55.5535 73.6736 -55.4411 72.4463L-21.5347 72.4463C-21.5006 72.8069 -21.3978 73.1407 -21.2415 73.4367C-20.8553 74.1527 -20.1514 74.6372 -19.3401 74.6372C-19.0175 74.6372 -18.7096 74.5619 -18.4359 74.4219L-1.4803 106.764C-2.03755 107.206 -2.39925 107.922 -2.39925 108.735C-2.39925 110.08 -1.41188 111.168 -0.189958 111.168C0.95378 111.168 1.89714 110.21 2.00957 108.982L35.9158 108.982C35.9696 109.558 36.1993 110.07 36.5513 110.457C36.9521 110.899 37.5043 111.168 38.1153 111.168C38.4379 111.168 38.7458 111.093 39.0195 110.953L55.9751 143.295C55.418 143.737 55.0563 144.452 55.0563 145.265C55.0563 145.685 55.154 146.078 55.3202 146.423C55.4815 146.746 55.7063 147.026 55.9751 147.241L39.0195 179.584C38.7409 179.449 38.4379 179.368 38.1153 179.368C36.8934 179.368 35.906 180.456 35.906 181.801C35.906 183.147 36.8934 184.235 38.1153 184.235C38.4379 184.235 38.7458 184.154 39.0195 184.019L55.9751 216.362C55.4179 216.803 55.0563 217.519 55.0563 218.332C55.0563 218.752 55.154 219.145 55.3251 219.49C55.4814 219.813 55.7063 220.087 55.9751 220.302L39.0195 252.645C38.7409 252.51 38.4379 252.43 38.1104 252.43C36.9667 252.43 36.0234 253.388 35.9109 254.615L2.00462 254.615C1.89219 253.388 0.948891 252.43 -0.194847 252.43C-1.41677 252.43 -2.40414 253.517 -2.40414 254.863C-2.40414 255.676 -2.04244 256.392 -1.48519 256.838L-18.4408 289.181C-18.7145 289.041 -19.0224 288.966 -19.345 288.966C-20.5669 288.966 -21.5543 290.053 -21.5543 291.399C-21.5543 292.745 -20.5669 293.832 -19.345 293.832C-19.0224 293.832 -18.7145 293.757 -18.4408 293.617L-1.48519 325.959C-2.04245 326.401 -2.40414 327.117 -2.40414 327.93C-2.40414 329.275 -1.41677 330.363 -0.19485 330.363C0.948888 330.363 1.89219 329.405 2.00461 328.177L35.9109 328.177C35.9647 328.753 36.1944 329.265 36.5464 329.652C36.9472 330.094 37.4994 330.363 38.1104 330.363C38.433 330.363 38.7409 330.282 39.0146 330.147L55.9702 362.49C55.4131 362.931 55.0514 363.647 55.0514 364.46C55.0514 365.801 56.0387 366.894 57.2607 366.894C58.4043 366.894 59.3477 365.935 59.4601 364.708L93.3664 364.708C93.4788 365.935 94.4222 366.894 95.5659 366.894C96.7878 366.894 97.7752 365.801 97.7752 364.46C97.7752 363.647 97.4135 362.931 96.8562 362.49L113.812 330.147C114.09 330.282 114.393 330.363 114.716 330.363C115.86 330.363 116.803 329.405 116.916 328.177L150.822 328.177C150.876 328.753 151.11 329.265 151.457 329.652C151.858 330.094 152.41 330.363 153.021 330.363C153.344 330.363 153.652 330.282 153.926 330.148L170.876 362.485C170.607 362.7 170.383 362.974 170.226 363.297C170.055 363.642 169.957 364.04 169.957 364.46C169.957 365.273 170.319 365.989 170.876 366.431L153.926 398.768C153.647 398.633 153.344 398.552 153.021 398.552C151.799 398.552 150.812 399.645 150.812 400.986C150.812 402.326 151.799 403.419 153.021 403.419C153.344 403.419 153.652 403.338 153.926 403.203L170.876 435.535C170.319 435.977 169.957 436.693 169.957 437.505C169.957 437.839 170.021 438.162 170.133 438.453C170.29 438.867 170.549 439.223 170.876 439.481L153.926 471.818C153.647 471.678 153.344 471.603 153.021 471.603C151.799 471.603 150.812 472.69 150.812 474.036C150.812 475.382 151.799 476.469 153.021 476.469C153.344 476.469 153.652 476.394 153.926 476.254L170.881 508.597C170.324 509.038 169.962 509.754 169.962 510.567C169.962 511.913 170.95 513 172.172 513C173.315 513 174.259 512.042 174.371 510.814L208.277 510.814C208.39 512.042 209.328 513 210.477 513C211.699 513 212.686 511.913 212.686 510.567C212.686 509.754 212.324 509.038 211.767 508.597L228.718 476.259C228.996 476.399 229.304 476.48 229.632 476.48C230.776 476.48 231.719 475.522 231.831 474.295L265.738 474.295C265.85 475.522 266.789 476.48 267.937 476.48C269.159 476.48 270.146 475.393 270.146 474.047C270.146 473.234 269.785 472.518 269.227 472.077L286.183 439.734C286.462 439.874 286.765 439.95 287.087 439.95C288.231 439.95 289.174 438.991 289.287 437.764L323.193 437.764C323.247 438.34 323.477 438.857 323.828 439.239C324.229 439.68 324.782 439.95 325.393 439.95C325.715 439.95 326.023 439.874 326.297 439.734L343.252 472.077C342.695 472.518 342.334 473.234 342.334 474.047C342.334 475.393 343.321 476.48 344.543 476.48C345.686 476.48 346.63 475.522 346.742 474.295L380.649 474.295C380.761 475.522 381.699 476.48 382.848 476.48C384.07 476.48 385.057 475.393 385.057 474.047C385.057 473.234 384.696 472.518 384.138 472.077L401.094 439.734C401.373 439.874 401.676 439.95 401.998 439.95C403.22 439.95 404.207 438.862 404.207 437.516C404.207 436.17 403.22 435.083 401.998 435.083C401.676 435.083 401.368 435.164 401.094 435.298L384.138 402.956C384.691 402.514 385.057 401.798 385.057 400.986C385.057 400.173 384.696 399.457 384.138 399.015L401.094 366.673C401.373 366.807 401.676 366.888 401.998 366.888C402.99 366.888 403.831 366.167 404.11 365.176C404.154 365.02 404.183 364.859 404.198 364.692L438.104 364.692C438.216 365.919 439.155 366.877 440.303 366.877C441.525 366.877 442.513 365.79 442.513 364.444C442.513 363.631 442.151 362.915 441.594 362.474L458.549 330.131C458.828 330.271 459.131 330.347 459.454 330.347C460.597 330.347 461.541 329.388 461.653 328.161L495.559 328.161C495.613 328.737 495.843 329.254 496.195 329.636C496.596 330.078 497.148 330.347 497.759 330.347C498.082 330.347 498.389 330.266 498.663 330.131L515.619 362.474C515.062 362.915 514.7 363.631 514.7 364.444C514.7 365.79 515.687 366.877 516.909 366.877C518.053 366.877 518.996 365.919 519.109 364.692L553.01 364.692C553.122 365.919 554.061 366.877 555.21 366.877C556.431 366.877 557.419 365.79 557.419 364.444C557.419 363.631 557.057 362.915 556.5 362.474L573.455 330.131C573.734 330.271 574.037 330.347 574.36 330.347C575.582 330.347 576.569 329.259 576.569 327.913C576.569 326.568 575.582 325.48 574.36 325.48C574.037 325.48 573.729 325.556 573.455 325.696L556.5 293.353C557.057 292.912 557.419 292.196 557.419 291.383C557.419 290.57 557.057 289.854 556.5 289.412L573.455 257.07C573.734 257.205 574.037 257.285 574.36 257.285C575.582 257.285 576.569 256.198 576.569 254.852C576.569 253.506 575.582 252.419 574.36 252.419C574.037 252.419 573.729 252.5 573.455 252.634L556.5 220.292C557.057 219.85 557.419 219.134 557.419 218.321C557.419 216.976 556.431 215.888 555.21 215.888C554.066 215.888 553.122 216.846 553.01 218.074L519.104 218.074C518.991 216.846 518.048 215.888 516.904 215.888C516.582 215.888 516.274 215.969 516 216.103L499.044 183.761C499.602 183.32 499.963 182.604 499.963 181.791C499.963 180.978 499.602 180.262 499.044 179.82L515.99 147.494C516.264 147.629 516.567 147.704 516.885 147.704C517.344 147.704 517.769 147.548 518.121 147.284C518.659 146.897 519.03 146.256 519.099 145.513L552.986 145.513C553.098 146.74 554.036 147.704 555.185 147.704C556.407 147.704 557.394 146.611 557.394 145.271C557.394 144.458 557.033 143.742 556.475 143.301L573.431 110.958C573.71 111.093 574.013 111.173 574.335 111.173C575.479 111.173 576.422 110.21 576.535 108.982L610.441 108.982C610.553 110.21 611.492 111.168 612.641 111.168C613.862 111.168 614.85 110.081 614.85 108.735C614.85 107.922 614.488 107.206 613.931 106.764L630.886 74.4381C631.165 74.5727 631.468 74.6534 631.791 74.6534C633.013 74.6534 634 73.566 634 72.2202C634 70.8744 633.013 69.787 631.791 69.787C631.468 69.787 631.16 69.8677 630.886 70.0023L613.931 37.6598C614.488 37.2183 614.85 36.5023 614.85 35.6895C614.85 34.3437 613.862 33.2563 612.641 33.2563C611.497 33.2563 610.553 34.2145 610.441 35.4419L576.535 35.4419C576.422 34.2145 575.479 33.2563 574.335 33.2563C574.013 33.2563 573.705 33.337 573.426 33.4716L556.471 1.12906C557.028 0.687649 557.389 -0.0283237 557.389 -0.84119C557.389 -2.18702 556.402 -3.27442 555.18 -3.27442C554.036 -3.27442 553.093 -2.3162 552.981 -1.08884L519.074 -1.08884C518.962 -2.3162 518.024 -3.27442 516.875 -3.27442C516.552 -3.27442 516.244 -3.19368 515.971 -3.0591L499.015 -35.4016C499.572 -35.8431 499.934 -36.559 499.934 -37.3719C499.934 -38.1848 499.572 -38.9007 499.015 -39.3422L515.971 -71.6847C516.249 -71.5447 516.552 -71.4694 516.875 -71.4694C518.097 -71.4694 519.084 -72.5568 519.084 -73.9026C519.084 -75.2484 518.097 -76.3358 516.875 -76.3358C516.552 -76.3358 516.244 -76.2551 515.971 -76.1205L499.015 -108.463C499.572 -108.904 499.934 -109.62 499.934 -110.433C499.934 -111.779 498.947 -112.866 497.725 -112.866C496.581 -112.866 495.638 -111.908 495.525 -110.681L461.619 -110.681C461.507 -111.908 460.568 -112.866 459.419 -112.866C458.198 -112.866 457.21 -111.779 457.21 -110.433C457.21 -109.62 457.572 -108.904 458.129 -108.463L441.174 -76.1205C440.895 -76.2551 440.592 -76.3358 440.269 -76.3358C439.126 -76.3358 438.182 -75.3776 438.07 -74.1448L404.168 -74.1448C404.144 -74.3925 404.09 -74.6239 404.007 -74.8447C403.675 -75.7221 402.888 -76.3358 401.969 -76.3358C401.646 -76.3358 401.338 -76.2551 401.065 -76.1205L384.114 -108.458C384.671 -108.899 385.033 -109.62 385.033 -110.428C385.033 -111.774 384.046 -112.861 382.824 -112.861C381.68 -112.861 380.737 -111.903 380.624 -110.676L346.718 -110.676C346.615 -111.822 345.784 -112.732 344.748 -112.85C344.675 -112.861 344.597 -112.861 344.523 -112.861C344.445 -112.861 344.372 -112.856 344.298 -112.85C344.059 -112.823 343.829 -112.753 343.619 -112.646L326.663 -144.988C327.221 -145.43 327.582 -146.146 327.582 -146.959C327.582 -147.771 327.221 -148.487 326.663 -148.929L343.619 -181.271C343.898 -181.137 344.201 -181.056 344.523 -181.056C345.745 -181.056 346.733 -182.143 346.733 -183.489C346.733 -184.835 345.745 -185.922 344.523 -185.922C344.201 -185.922 343.893 -185.847 343.619 -185.707L326.663 -218.05C327.221 -218.491 327.582 -219.207 327.582 -220.02C327.582 -221.366 326.595 -222.453 325.373 -222.453C324.229 -222.453 323.286 -221.495 323.174 -220.268L289.267 -220.268C289.155 -221.495 288.212 -222.453 287.068 -222.453C286.745 -222.453 286.437 -222.378 286.164 -222.238L269.223 -254.597C269.78 -255.038 270.142 -255.754 270.142 -256.567C270.142 -257.913 269.154 -259 267.932 -259C266.784 -259 265.845 -258.042 265.733 -256.814ZM116.3 326.234C115.899 325.792 115.347 325.523 114.736 325.523C114.413 325.523 114.105 325.599 113.831 325.739L96.8758 293.396C97.433 292.955 97.7947 292.239 97.7947 291.426C97.7947 290.613 97.433 289.897 96.8758 289.456L111.847 260.897L113.831 257.113C114.11 257.248 114.413 257.328 114.736 257.328C115.879 257.328 116.823 256.37 116.935 255.143L150.841 255.143C150.871 255.471 150.959 255.783 151.096 256.058C151.467 256.817 152.2 257.334 153.036 257.334C153.359 257.334 153.667 257.258 153.94 257.118L170.896 289.461C170.339 289.902 169.977 290.618 169.977 291.431C169.977 292.244 170.339 292.96 170.896 293.401L153.94 325.744C153.662 325.609 153.359 325.529 153.036 325.529C151.892 325.529 150.949 326.487 150.836 327.714L116.93 327.714C116.881 327.138 116.647 326.621 116.3 326.234ZM457.244 181.807C457.244 182.62 457.606 183.336 458.163 183.777L441.208 216.12C440.929 215.98 440.626 215.904 440.303 215.904C439.16 215.904 438.216 216.863 438.104 218.09L404.198 218.09C404.168 217.762 404.076 217.455 403.944 217.175C403.567 216.416 402.839 215.899 401.998 215.899C401.676 215.899 401.368 215.98 401.094 216.114L384.143 183.782C384.466 183.524 384.725 183.169 384.881 182.754C384.994 182.464 385.057 182.141 385.057 181.801C385.057 180.989 384.696 180.273 384.138 179.831L401.084 147.505C401.099 147.51 401.114 147.521 401.128 147.526C401.392 147.65 401.685 147.72 401.988 147.72C402.907 147.72 403.694 147.101 404.027 146.224C404.11 146.008 404.168 145.771 404.188 145.529L438.075 145.529C438.187 146.757 439.13 147.72 440.274 147.72C440.607 147.72 440.919 147.639 441.203 147.494L458.154 179.837C457.606 180.278 457.244 180.994 457.244 181.807ZM325.397 362.049C324.254 362.049 323.31 363.007 323.198 364.234L289.292 364.234C289.179 363.007 288.241 362.049 287.092 362.049C286.77 362.049 286.462 362.124 286.188 362.264L269.232 329.921C269.79 329.48 270.151 328.764 270.151 327.951C270.151 327.192 269.838 326.519 269.345 326.072C269.306 326.04 269.271 326.008 269.232 325.981L286.188 293.638C286.467 293.773 286.77 293.854 287.092 293.854C288.236 293.854 289.179 292.895 289.292 291.663L323.198 291.663C323.31 292.89 324.254 293.854 325.397 293.854C325.72 293.854 326.028 293.773 326.302 293.638L343.252 325.976C342.871 326.282 342.578 326.718 342.441 327.224C342.378 327.456 342.338 327.698 342.338 327.951C342.338 328.764 342.7 329.48 343.257 329.921L326.302 362.264C326.023 362.124 325.72 362.049 325.397 362.049ZM116.935 254.642C116.823 253.415 115.884 252.457 114.736 252.457C114.413 252.457 114.105 252.532 113.831 252.672L96.8758 220.329C97.433 219.888 97.7947 219.172 97.7947 218.359C97.7947 217.6 97.4819 216.927 96.9883 216.48C96.9491 216.448 96.91 216.416 96.8758 216.383L113.831 184.041C114.11 184.175 114.413 184.256 114.736 184.256C115.879 184.256 116.823 183.298 116.935 182.071L150.841 182.071C150.861 182.318 150.92 182.555 151.003 182.77C151.34 183.643 152.122 184.256 153.036 184.256C153.359 184.256 153.667 184.175 153.94 184.041L170.896 216.383C170.339 216.825 169.977 217.541 169.977 218.354C169.977 219.027 170.221 219.635 170.622 220.076C170.705 220.168 170.798 220.254 170.891 220.329L153.935 252.672C153.657 252.532 153.354 252.457 153.031 252.457C151.887 252.457 150.944 253.415 150.832 254.642L116.935 254.642ZM97.7947 145.292C97.7947 144.872 97.6969 144.474 97.5259 144.129C97.3695 143.806 97.1446 143.532 96.8758 143.317L113.827 110.974C114.105 111.109 114.408 111.189 114.731 111.189C115.874 111.189 116.818 110.231 116.93 109.004L150.832 109.004C150.856 109.251 150.915 109.483 150.998 109.704C151.33 110.576 152.117 111.189 153.031 111.189C153.354 111.189 153.662 111.109 153.935 110.974L170.886 143.311C170.329 143.753 169.967 144.469 169.967 145.282C169.967 145.621 170.031 145.944 170.143 146.234C170.226 146.455 170.339 146.654 170.475 146.837C170.598 146.999 170.735 147.139 170.891 147.263L153.935 179.605C153.657 179.47 153.354 179.39 153.031 179.39C152.112 179.39 151.33 180.003 150.998 180.876C150.915 181.096 150.856 181.333 150.836 181.575L116.93 181.575C116.901 181.247 116.813 180.94 116.676 180.66C116.305 179.901 115.571 179.384 114.736 179.384C114.413 179.384 114.105 179.46 113.831 179.6L96.8758 147.257C97.433 146.821 97.7947 146.105 97.7947 145.292ZM97.7898 72.2202C97.7898 71.4073 97.4281 70.6913 96.8709 70.2499L111.842 41.6918L113.827 37.9074C114.1 38.0419 114.408 38.1227 114.731 38.1227C115.874 38.1227 116.818 37.1645 116.93 35.9371L150.837 35.9371C150.866 36.2655 150.954 36.5723 151.091 36.8522C151.467 37.6113 152.195 38.1281 153.036 38.1281C153.359 38.1281 153.667 38.0527 153.94 37.9127L170.896 70.2553C170.339 70.6967 169.977 71.4127 169.977 72.2255C169.977 73.0384 170.339 73.7544 170.896 74.1958L153.94 106.538C153.662 106.404 153.359 106.323 153.036 106.323C151.892 106.323 150.949 107.281 150.837 108.509L116.935 108.509C116.911 108.261 116.857 108.029 116.769 107.809C116.437 106.937 115.65 106.323 114.731 106.323C114.408 106.323 114.1 106.398 113.827 106.538L96.8709 74.1958C97.4281 73.749 97.7898 73.033 97.7898 72.2202ZM380.795 36.6369C381.132 37.509 381.914 38.1281 382.833 38.1281C383.156 38.1281 383.464 38.0473 383.738 37.9127L400.688 70.2499C400.131 70.6913 399.769 71.4073 399.769 72.2202C399.769 73.033 400.131 73.749 400.688 74.1904L383.733 106.533C383.718 106.528 383.703 106.517 383.689 106.511C383.425 106.388 383.132 106.318 382.824 106.318C381.68 106.318 380.737 107.276 380.624 108.503L346.732 108.503C346.649 107.599 346.117 106.845 345.383 106.506C345.12 106.382 344.826 106.312 344.523 106.312C344.206 106.312 343.902 106.388 343.629 106.522L326.678 74.1904C327.235 73.749 327.597 73.0277 327.597 72.2202C327.597 71.4073 327.235 70.6913 326.678 70.2499L343.629 37.9127C343.839 38.015 344.069 38.085 344.308 38.1119C344.381 38.1173 344.46 38.1227 344.533 38.1227C345.677 38.1227 346.62 37.1645 346.733 35.9317L380.624 35.9317C380.658 36.1847 380.712 36.4162 380.795 36.6369ZM399.774 145.287C399.774 146.105 400.141 146.827 400.703 147.268L383.757 179.589C383.479 179.449 383.176 179.374 382.853 179.374C381.934 179.374 381.147 179.993 380.815 180.87C380.727 181.091 380.673 181.333 380.649 181.581L346.742 181.581C346.713 181.252 346.625 180.946 346.488 180.666C346.112 179.907 345.383 179.39 344.548 179.39C344.225 179.39 343.917 179.465 343.643 179.605L326.688 147.263C327.245 146.821 327.607 146.105 327.607 145.292C327.607 144.706 327.416 144.167 327.103 143.742C326.981 143.58 326.844 143.44 326.693 143.317L343.648 110.974C343.663 110.98 343.678 110.99 343.687 110.996C343.951 111.119 344.245 111.189 344.553 111.189C345.696 111.189 346.64 110.231 346.752 109.004L380.644 109.004C380.697 109.574 380.927 110.091 381.279 110.473C381.479 110.694 381.724 110.877 381.993 110.996C382.257 111.119 382.55 111.189 382.858 111.189C383.176 111.189 383.479 111.114 383.757 110.98L400.708 143.311C400.136 143.758 399.774 144.474 399.774 145.287ZM155.245 108.762C155.245 108.422 155.182 108.105 155.069 107.814C154.928 107.448 154.712 107.125 154.439 106.877C154.405 106.845 154.365 106.813 154.326 106.786L171.277 74.4381C171.556 74.5726 171.859 74.6534 172.181 74.6534C173.325 74.6534 174.268 73.6952 174.381 72.4678L208.287 72.4678C208.316 72.7962 208.404 73.103 208.541 73.3829C208.913 74.142 209.646 74.6642 210.487 74.6642C210.809 74.6642 211.117 74.5888 211.391 74.4488L228.342 106.786C227.784 107.227 227.423 107.943 227.423 108.756C227.423 109.095 227.486 109.413 227.599 109.709C227.628 109.784 227.657 109.854 227.691 109.924C227.848 110.247 228.073 110.522 228.337 110.732L211.386 143.074C211.107 142.934 210.804 142.859 210.482 142.859C209.338 142.859 208.395 143.817 208.282 145.045L174.381 145.045C174.356 144.797 174.303 144.566 174.219 144.345C173.882 143.473 173.1 142.859 172.181 142.859C171.859 142.859 171.551 142.934 171.277 143.074L154.326 110.737C154.884 110.29 155.245 109.569 155.245 108.762ZM325.397 215.915C324.557 215.915 323.829 216.432 323.457 217.191C323.32 217.465 323.227 217.778 323.198 218.106L289.297 218.106C289.184 216.879 288.241 215.92 287.097 215.92C286.77 215.92 286.462 216.001 286.188 216.136L269.237 183.799C269.794 183.357 270.156 182.641 270.156 181.828C270.156 181.016 269.794 180.3 269.237 179.858L281.501 156.468L286.193 147.516C286.471 147.656 286.775 147.731 287.097 147.731C288.241 147.731 289.184 146.773 289.297 145.545L323.203 145.545C323.232 145.874 323.32 146.186 323.457 146.46C323.833 147.219 324.562 147.736 325.402 147.736C325.725 147.736 326.033 147.656 326.307 147.521L343.262 179.863C342.705 180.305 342.343 181.021 342.343 181.834C342.343 182.647 342.705 183.363 343.262 183.804L326.311 216.141C326.023 215.996 325.72 215.915 325.397 215.915ZM231.582 180.666C231.206 179.907 230.477 179.39 229.642 179.39C229.319 179.39 229.011 179.465 228.737 179.605L211.782 147.263C212.339 146.821 212.701 146.105 212.701 145.292C212.701 144.953 212.637 144.63 212.525 144.339C212.368 143.93 212.109 143.575 211.787 143.317L228.737 110.974C229.016 111.109 229.319 111.189 229.642 111.189C230.785 111.189 231.729 110.231 231.841 109.004L265.747 109.004C265.777 109.332 265.87 109.639 266.002 109.919C266.378 110.678 267.106 111.195 267.947 111.195C268.27 111.195 268.577 111.114 268.851 110.98L285.807 143.322C285.25 143.763 284.888 144.479 284.888 145.292C284.888 146.105 285.25 146.821 285.807 147.263L268.851 179.605C268.573 179.471 268.27 179.39 267.947 179.39C266.803 179.39 265.86 180.348 265.747 181.581L231.841 181.581C231.807 181.252 231.719 180.94 231.582 180.666ZM324.532 74.465C324.796 74.5888 325.09 74.6588 325.393 74.6588C325.715 74.6588 326.018 74.5834 326.292 74.4488L343.243 106.781C342.685 107.222 342.324 107.938 342.324 108.751C342.324 109.569 342.69 110.29 343.252 110.732L326.302 143.069C326.023 142.934 325.72 142.854 325.397 142.854C324.254 142.854 323.31 143.812 323.198 145.039L289.292 145.039C289.179 143.812 288.241 142.854 287.092 142.854C286.77 142.854 286.462 142.934 286.188 143.069L269.232 110.726C269.79 110.285 270.151 109.569 270.151 108.756C270.151 107.997 269.838 107.324 269.345 106.877C269.311 106.845 269.267 106.813 269.232 106.781L286.188 74.4381C286.467 74.5726 286.77 74.6534 287.092 74.6534C288.236 74.6534 289.179 73.6952 289.292 72.4678L323.183 72.4678C323.266 73.3722 323.799 74.1312 324.532 74.465ZM267.712 38.1119C267.786 38.1227 267.864 38.1281 267.942 38.1281C268.265 38.1281 268.573 38.0473 268.846 37.9127L285.802 70.2553C285.362 70.6052 285.039 71.1274 284.927 71.7357C284.898 71.8918 284.883 72.0586 284.883 72.2255C284.883 73.0384 285.245 73.7544 285.802 74.1958L268.846 106.538C268.568 106.398 268.265 106.323 267.942 106.323C266.798 106.323 265.855 107.281 265.743 108.509L231.836 108.509C231.812 108.261 231.758 108.024 231.67 107.803C231.333 106.931 230.551 106.312 229.632 106.312C229.309 106.312 229.001 106.388 228.728 106.528L211.777 74.1904C212.334 73.749 212.696 73.033 212.696 72.2202C212.696 71.881 212.632 71.558 212.52 71.2673C212.363 70.8582 212.104 70.5029 211.782 70.2445L228.733 37.9074C229.006 38.0419 229.309 38.1173 229.627 38.1173C229.632 38.1173 229.632 38.1173 229.637 38.1173C230.781 38.1173 231.724 37.1591 231.836 35.9317L265.733 35.9317C265.835 37.0891 266.666 37.9989 267.712 38.1119ZM173.242 216.217C172.929 216.028 172.572 215.92 172.186 215.92C171.864 215.92 171.556 215.996 171.282 216.136L154.326 183.793C154.766 183.443 155.089 182.921 155.201 182.313C155.231 182.157 155.245 181.99 155.245 181.823C155.245 181.656 155.231 181.489 155.201 181.333C155.089 180.725 154.766 180.203 154.326 179.853L171.282 147.51C171.561 147.65 171.864 147.726 172.186 147.726C173.33 147.726 174.273 146.767 174.386 145.54L208.287 145.54C208.312 145.788 208.365 146.019 208.453 146.24C208.483 146.315 208.512 146.385 208.546 146.455C208.918 147.214 209.651 147.731 210.487 147.731C210.809 147.731 211.117 147.65 211.391 147.516L228.346 179.858C227.789 180.3 227.428 181.016 227.428 181.828C227.428 182.641 227.789 183.357 228.346 183.799L211.391 216.141C211.112 216.001 210.809 215.926 210.487 215.926C209.343 215.926 208.4 216.884 208.287 218.111L174.381 218.111C174.307 217.293 173.868 216.593 173.242 216.217ZM212.701 218.359C212.701 217.6 212.388 216.927 211.894 216.48C211.86 216.448 211.821 216.416 211.782 216.383L228.733 184.041C229.011 184.175 229.314 184.256 229.637 184.256C230.78 184.256 231.724 183.298 231.836 182.071L265.743 182.071C265.855 183.298 266.798 184.256 267.942 184.256C268.265 184.256 268.573 184.175 268.846 184.041L285.797 216.378C285.533 216.593 285.308 216.868 285.152 217.186C284.981 217.53 284.883 217.928 284.883 218.354C284.883 219.027 285.132 219.635 285.528 220.076C285.611 220.168 285.704 220.254 285.802 220.329L275.88 239.257L268.851 252.666C268.573 252.526 268.27 252.451 267.947 252.451C267.106 252.451 266.373 252.968 266.002 253.732C265.865 254.007 265.777 254.314 265.747 254.642L231.846 254.642C231.734 253.415 230.79 252.457 229.647 252.457C229.319 252.457 229.011 252.537 228.737 252.677L211.787 220.34C212.334 219.888 212.701 219.167 212.701 218.359ZM288.656 289.692C288.255 289.251 287.703 288.982 287.092 288.982C286.77 288.982 286.462 289.063 286.188 289.197L269.237 256.86C269.447 256.693 269.633 256.483 269.775 256.246C270.014 255.859 270.151 255.39 270.151 254.884C270.151 254.298 269.961 253.759 269.648 253.334C269.526 253.172 269.389 253.033 269.232 252.909L273.729 244.333L286.183 220.572C286.462 220.706 286.765 220.787 287.087 220.787C287.928 220.787 288.656 220.27 289.033 219.511C289.169 219.237 289.257 218.93 289.287 218.601L323.188 218.601C323.242 219.177 323.472 219.694 323.824 220.076C324.224 220.518 324.777 220.787 325.388 220.787C325.71 220.787 326.018 220.706 326.292 220.572L343.243 252.903C342.92 253.162 342.661 253.517 342.505 253.932C342.392 254.222 342.329 254.545 342.329 254.884C342.329 255.697 342.69 256.413 343.248 256.855L326.302 289.181C326.023 289.046 325.72 288.966 325.397 288.966C324.405 288.966 323.565 289.687 323.286 290.678C323.242 290.834 323.208 290.995 323.193 291.167L289.287 291.167C289.243 290.597 289.008 290.08 288.656 289.692ZM382.853 252.435C381.934 252.435 381.147 253.054 380.815 253.932C380.732 254.147 380.678 254.378 380.653 254.621L346.752 254.621C346.64 253.393 345.696 252.435 344.553 252.435C344.225 252.435 343.917 252.516 343.639 252.656L326.688 220.324C327.01 220.066 327.269 219.71 327.426 219.301C327.538 219.01 327.602 218.687 327.602 218.348C327.602 217.535 327.24 216.819 326.683 216.378L343.639 184.041C343.912 184.175 344.22 184.256 344.543 184.256C345.687 184.256 346.63 183.298 346.742 182.071L380.649 182.071C380.761 183.298 381.699 184.256 382.848 184.256C383.171 184.256 383.479 184.175 383.752 184.041L400.703 216.373C400.38 216.636 400.121 216.986 399.965 217.401C399.853 217.692 399.789 218.015 399.789 218.354C399.789 219.167 400.151 219.883 400.708 220.324L383.762 252.65C383.479 252.516 383.176 252.435 382.853 252.435ZM342.319 35.6895C342.319 36.0232 342.382 36.3462 342.495 36.6369C342.651 37.0514 342.91 37.4014 343.238 37.6597L326.287 70.0022C326.272 69.9969 326.258 69.9861 326.243 69.9807C325.979 69.8569 325.686 69.7869 325.383 69.7869C324.234 69.7869 323.296 70.7505 323.183 71.9779L289.292 71.9779C289.223 71.2404 288.857 70.5998 288.329 70.2068C287.977 69.943 287.552 69.7923 287.092 69.7923C286.77 69.7923 286.462 69.8731 286.188 70.0076L269.232 37.6651C269.79 37.2237 270.151 36.5077 270.151 35.6948C270.151 35.1081 269.961 34.5697 269.648 34.1445C269.526 33.983 269.389 33.843 269.232 33.7192L286.183 1.38206C286.393 1.48436 286.623 1.55434 286.863 1.58125C286.936 1.592 287.014 1.592 287.087 1.592C288.231 1.592 289.174 0.633774 289.287 -0.593582L323.183 -0.59358C323.237 -0.0229628 323.467 0.493822 323.819 0.881426C324.171 1.26903 324.64 1.52742 325.163 1.58125C325.236 1.592 325.314 1.592 325.388 1.592C325.71 1.592 326.013 1.51665 326.287 1.38207L343.238 33.7138C342.685 34.1606 342.319 34.8766 342.319 35.6895ZM208.277 -0.593586C208.331 -0.0175967 208.561 0.493817 208.913 0.881421C209.313 1.32286 209.866 1.59199 210.477 1.59199C210.799 1.59199 211.107 1.51124 211.381 1.37666L228.337 33.7192C228.298 33.7515 228.263 33.7784 228.229 33.8107C227.735 34.2575 227.418 34.9358 227.418 35.6948C227.418 36.5077 227.779 37.2291 228.337 37.6705L211.386 70.0022C211.112 69.8677 210.804 69.7869 210.482 69.7869C209.338 69.7869 208.395 70.7452 208.282 71.9725L174.376 71.9725C174.264 70.7452 173.32 69.7869 172.176 69.7869C172.098 69.7869 172.025 69.7923 171.952 69.7977C171.712 69.8246 171.482 69.8946 171.272 70.0022L154.317 37.6597C154.874 37.2183 155.235 36.5023 155.235 35.6895C155.235 35.1027 155.045 34.5643 154.727 34.1391C154.605 33.9776 154.468 33.8376 154.312 33.7138L171.262 1.37666C171.536 1.51124 171.844 1.59199 172.162 1.59199C172.621 1.59199 173.051 1.43589 173.403 1.1721C173.931 0.779124 174.298 0.13853 174.366 -0.593587L208.277 -0.593586ZM212.432 292.578C212.603 292.233 212.701 291.835 212.701 291.415C212.701 290.602 212.339 289.886 211.782 289.445L228.733 257.108C229.011 257.242 229.314 257.323 229.637 257.323C230.551 257.323 231.338 256.709 231.675 255.837C231.758 255.616 231.817 255.38 231.841 255.137L265.743 255.137C265.855 256.365 266.798 257.323 267.942 257.323C268.27 257.323 268.577 257.242 268.851 257.102L285.802 289.439C285.245 289.881 284.883 290.597 284.883 291.41C284.883 292.223 285.245 292.939 285.802 293.38L268.846 325.722C268.568 325.582 268.265 325.507 267.942 325.507C266.798 325.507 265.855 326.465 265.743 327.698L231.836 327.698C231.807 327.37 231.719 327.063 231.582 326.783C231.206 326.024 230.477 325.507 229.642 325.507C229.319 325.507 229.011 325.582 228.737 325.722L211.787 293.385C212.051 293.175 212.275 292.895 212.432 292.578ZM382.853 325.502C381.861 325.502 381.02 326.223 380.741 327.219C380.697 327.37 380.668 327.526 380.653 327.693L346.747 327.693C346.635 326.465 345.696 325.502 344.548 325.502C344.225 325.502 343.917 325.577 343.643 325.717L326.693 293.38C327.074 293.073 327.362 292.642 327.504 292.136C327.573 291.905 327.607 291.657 327.607 291.404C327.607 290.591 327.245 289.875 326.688 289.434L343.634 257.108C343.912 257.242 344.215 257.323 344.538 257.323C345.379 257.323 346.107 256.806 346.483 256.047C346.552 255.907 346.61 255.756 346.654 255.606C346.698 255.455 346.728 255.299 346.742 255.137L380.644 255.137C380.756 256.365 381.695 257.323 382.843 257.323C383.171 257.323 383.483 257.242 383.762 257.102L400.713 289.434C400.156 289.875 399.794 290.591 399.794 291.404C399.794 292.217 400.156 292.933 400.713 293.375L383.757 325.717C383.479 325.583 383.176 325.502 382.853 325.502ZM440.303 142.838C439.844 142.838 439.419 142.994 439.067 143.257C438.534 143.65 438.163 144.286 438.089 145.029L404.203 145.029C404.09 143.801 403.147 142.843 402.003 142.843C401.676 142.843 401.363 142.924 401.084 143.064L384.138 110.732C384.696 110.29 385.057 109.574 385.057 108.762C385.057 107.943 384.691 107.222 384.129 106.781L401.079 74.4381C401.358 74.578 401.661 74.6534 401.984 74.6534C403.127 74.6534 404.071 73.6951 404.183 72.4624L438.089 72.4624C438.202 73.6898 439.145 74.6534 440.289 74.6534C440.611 74.6534 440.919 74.578 441.193 74.4381L458.149 106.781C457.591 107.222 457.23 107.938 457.23 108.751C457.23 109.424 457.479 110.032 457.875 110.474C457.958 110.565 458.051 110.646 458.149 110.726L441.203 143.053C440.924 142.918 440.621 142.838 440.303 142.838ZM457.225 35.6895C457.225 36.5023 457.587 37.2183 458.144 37.6598L441.188 70.0022C440.91 69.8623 440.607 69.7869 440.284 69.7869C439.14 69.7869 438.197 70.7452 438.084 71.9725L404.178 71.9725C404.066 70.7452 403.122 69.7869 401.979 69.7869C401.9 69.7869 401.827 69.7923 401.754 69.7977C401.514 69.8246 401.285 69.8946 401.074 70.0022L384.124 37.6652C384.681 37.2237 385.043 36.5077 385.043 35.6948C385.043 35.4419 385.008 35.1996 384.94 34.9681C384.92 34.8982 384.896 34.8282 384.872 34.7636C384.872 34.7582 384.867 34.7528 384.867 34.7474C384.784 34.5267 384.671 34.3221 384.534 34.1445C384.412 33.983 384.275 33.843 384.124 33.7246L401.079 1.38207C401.358 1.51665 401.661 1.5974 401.984 1.5974C403.132 1.5974 404.071 0.633779 404.183 -0.593577L438.084 -0.593575C438.114 -0.265206 438.202 0.0416479 438.339 0.321586C438.71 1.08062 439.443 1.5974 440.279 1.5974C440.602 1.5974 440.91 1.51665 441.183 1.38207L458.139 33.7246C457.587 34.1606 457.225 34.8766 457.225 35.6895ZM267.932 -34.9387C268.255 -34.9387 268.563 -35.0194 268.837 -35.154L285.792 -2.81148C285.235 -2.37007 284.873 -1.6541 284.873 -0.841202C284.873 -0.42131 284.971 -0.0283356 285.142 0.316177C285.303 0.639175 285.528 0.913712 285.792 1.12904L268.841 33.4662C268.631 33.3639 268.401 33.2939 268.162 33.267C268.089 33.2616 268.01 33.2563 267.937 33.2563C266.793 33.2563 265.85 34.2145 265.738 35.4418L231.841 35.4418C231.817 35.1942 231.763 34.9573 231.675 34.7366C231.343 33.8646 230.556 33.2509 229.637 33.2509C229.314 33.2509 229.006 33.3316 228.733 33.4662L211.777 1.12367C211.816 1.09135 211.85 1.06447 211.889 1.03215C212.383 0.585339 212.696 -0.0929444 212.696 -0.846607C212.696 -1.65947 212.334 -2.38082 211.777 -2.82225L228.728 -35.154C229.006 -35.0194 229.309 -34.9387 229.632 -34.9387C230.776 -34.9387 231.719 -35.8969 231.831 -37.1297L265.738 -37.1297C265.845 -35.8969 266.784 -34.9387 267.932 -34.9387ZM153.026 -34.9387C153.349 -34.9387 153.657 -35.0194 153.93 -35.154L170.886 -2.81148C170.852 -2.78457 170.813 -2.75228 170.779 -2.71996C170.285 -2.27315 169.967 -1.59487 169.967 -0.835836C169.967 -0.0229695 170.334 0.698375 170.891 1.13981L153.94 33.4769C153.662 33.337 153.359 33.2616 153.036 33.2616C151.892 33.2616 150.949 34.2198 150.837 35.4472L116.93 35.4472C116.828 34.3006 115.997 33.3908 114.956 33.2724C114.882 33.2616 114.804 33.2616 114.731 33.2616C114.657 33.2616 114.579 33.267 114.506 33.2724C114.266 33.2993 114.037 33.3693 113.827 33.4769L96.8709 1.13444C97.4281 0.693 97.7898 -0.0229727 97.7898 -0.835839C97.7898 -1.5895 97.477 -2.26778 96.9834 -2.71459C96.9491 -2.74691 96.91 -2.7792 96.8709 -2.81149L113.827 -35.154C114.105 -35.0194 114.408 -34.9387 114.731 -34.9387C115.874 -34.9387 116.818 -35.8969 116.93 -37.1243L150.827 -37.1243C150.934 -35.9023 151.878 -34.9387 153.026 -34.9387ZM57.2801 69.7869C57.202 69.7869 57.1286 69.7923 57.0553 69.7977C56.8158 69.8246 56.5861 69.8946 56.3759 70.0022L39.4203 37.6597C39.9776 37.2183 40.3393 36.5023 40.3393 35.6895C40.3393 35.1027 40.1486 34.5643 39.8358 34.1391C39.7136 33.9776 39.5768 33.8376 39.4203 33.7138L56.3759 1.37128C56.6496 1.50586 56.9576 1.58661 57.2801 1.58661C58.4239 1.58661 59.3672 0.628393 59.4797 -0.598963L93.3859 -0.598962C93.4153 -0.270592 93.5032 0.0362313 93.6401 0.316169C94.0116 1.0752 94.7448 1.59199 95.5806 1.59199C95.9032 1.59199 96.2111 1.51124 96.4848 1.37665L113.44 33.7192C112.883 34.1606 112.521 34.8766 112.521 35.6895C112.521 36.5023 112.883 37.2183 113.44 37.6597L112.58 39.3016L96.4848 70.0022C96.2111 69.8677 95.9032 69.7869 95.5806 69.7869C94.4369 69.7869 93.4935 70.7452 93.3811 71.9725L59.4748 71.9725C59.3673 70.7452 58.4239 69.7869 57.2801 69.7869ZM173.75 289.703C173.349 289.262 172.797 288.993 172.186 288.993C171.864 288.993 171.556 289.073 171.282 289.208L154.326 256.865C154.879 256.424 155.245 255.708 155.245 254.895C155.245 254.308 155.055 253.77 154.742 253.345C154.62 253.183 154.483 253.043 154.331 252.919L171.287 220.577C171.565 220.712 171.868 220.792 172.191 220.792C173.335 220.792 174.278 219.834 174.391 218.607L208.297 218.607C208.351 219.183 208.58 219.694 208.932 220.082C209.333 220.523 209.885 220.798 210.496 220.798C210.819 220.798 211.127 220.717 211.401 220.582L228.351 252.919C228.082 253.135 227.862 253.409 227.701 253.732C227.53 254.077 227.432 254.475 227.432 254.895C227.432 255.568 227.682 256.176 228.078 256.618C228.161 256.709 228.254 256.79 228.346 256.871L211.396 289.208C211.117 289.073 210.814 288.993 210.491 288.993C209.651 288.993 208.922 289.509 208.546 290.274C208.409 290.554 208.321 290.861 208.287 291.189L174.381 291.189C174.332 290.602 174.102 290.085 173.75 289.703ZM231.206 399.29C230.805 398.848 230.253 398.579 229.642 398.579C229.319 398.579 229.011 398.66 228.737 398.795L211.782 366.457C212.046 366.242 212.271 365.968 212.427 365.65C212.598 365.305 212.696 364.907 212.696 364.482C212.696 363.895 212.505 363.357 212.192 362.931C212.075 362.77 211.933 362.63 211.777 362.506L228.728 330.169C229.006 330.304 229.309 330.384 229.632 330.384C230.473 330.384 231.206 329.868 231.577 329.103C231.714 328.823 231.802 328.516 231.836 328.188L265.743 328.188C265.772 328.516 265.86 328.823 265.997 329.103C266.368 329.862 267.101 330.379 267.937 330.379C268.26 330.379 268.568 330.298 268.841 330.164L285.797 362.506C285.24 362.948 284.878 363.664 284.878 364.476C284.878 365.289 285.24 366.005 285.797 366.447L268.841 398.789C268.563 398.655 268.26 398.574 267.937 398.574C266.793 398.574 265.85 399.532 265.738 400.759L231.831 400.759C231.787 400.194 231.558 399.677 231.206 399.29ZM403.562 289.682C403.162 289.24 402.609 288.971 401.998 288.971C401.676 288.971 401.368 289.052 401.094 289.186L384.143 256.855C384.466 256.596 384.72 256.246 384.876 255.832C384.994 255.536 385.057 255.213 385.057 254.874C385.057 254.287 384.867 253.749 384.554 253.323C384.432 253.162 384.295 253.022 384.143 252.903L401.089 220.577C401.368 220.712 401.671 220.792 401.993 220.792C402.912 220.792 403.699 220.173 404.032 219.296C404.12 219.075 404.173 218.838 404.198 218.585L438.104 218.585C438.133 218.914 438.221 219.22 438.358 219.5C438.73 220.259 439.463 220.776 440.303 220.776C440.626 220.776 440.934 220.701 441.208 220.561L458.163 252.903C457.606 253.345 457.244 254.061 457.244 254.874C457.244 255.686 457.606 256.402 458.163 256.844L441.208 289.186C440.929 289.052 440.626 288.971 440.303 288.971C439.16 288.971 438.216 289.929 438.104 291.157L404.198 291.157C404.149 290.586 403.914 290.069 403.562 289.682ZM495.794 36.8469C496.17 37.6059 496.899 38.1227 497.739 38.1227C498.062 38.1227 498.365 38.0473 498.644 37.9074L515.599 70.2499C515.042 70.6913 514.68 71.4073 514.68 72.2202C514.68 73.033 515.042 73.749 515.599 74.1904L498.653 106.517C498.38 106.382 498.077 106.307 497.759 106.307C497.373 106.307 497.006 106.42 496.689 106.614C496.063 106.985 495.623 107.68 495.545 108.498L461.658 108.498C461.546 107.27 460.602 106.312 459.459 106.312C459.126 106.312 458.813 106.393 458.535 106.538L441.584 74.1958C442.141 73.7544 442.503 73.0384 442.503 72.2255C442.503 71.4127 442.141 70.6967 441.584 70.2553L454.693 45.2447L458.53 37.9074C458.804 38.042 459.112 38.1227 459.434 38.1227C460.578 38.1227 461.521 37.1645 461.634 35.9371L495.54 35.9371C495.569 36.2601 495.657 36.5724 495.794 36.8469ZM380.722 -36.6505C381 -35.66 381.841 -34.9387 382.833 -34.9387C383.156 -34.9387 383.464 -35.0194 383.738 -35.154L400.688 -2.81684C400.131 -2.37544 399.769 -1.65946 399.769 -0.846598C399.769 -0.507457 399.833 -0.18983 399.945 0.106252C400.102 0.520742 400.366 0.870656 400.688 1.12905L383.733 33.4716C383.454 33.337 383.151 33.2563 382.828 33.2563C381.685 33.2563 380.741 34.2145 380.629 35.4419L346.737 35.4419C346.654 34.5375 346.122 33.7838 345.388 33.4447C345.124 33.3208 344.831 33.2509 344.528 33.2509C344.21 33.2509 343.902 33.3263 343.629 33.4608L326.678 1.12905C327.235 0.687639 327.597 -0.0283337 327.597 -0.8412C327.597 -1.6541 327.23 -2.37544 326.673 -2.81685L343.624 -35.154C343.902 -35.0194 344.206 -34.9387 344.528 -34.9387C345.672 -34.9387 346.615 -35.8969 346.728 -37.1297L380.634 -37.1296C380.649 -36.9628 380.678 -36.8013 380.722 -36.6505ZM323.437 -72.7452C323.814 -71.9862 324.542 -71.4694 325.383 -71.4694C325.705 -71.4694 326.013 -71.5501 326.287 -71.6847L343.243 -39.3422C342.685 -38.9007 342.324 -38.1848 342.324 -37.3719C342.324 -36.559 342.685 -35.8431 343.243 -35.4016L326.292 -3.0645C326.082 -3.16678 325.852 -3.23675 325.613 -3.26367C325.539 -3.27444 325.461 -3.27443 325.383 -3.27443C324.239 -3.27443 323.296 -2.31621 323.183 -1.08885L289.287 -1.08885C289.184 -2.23546 288.353 -3.15063 287.307 -3.26367C287.234 -3.27444 287.156 -3.27443 287.078 -3.27443C286.755 -3.27443 286.447 -3.19908 286.173 -3.05911L269.218 -35.4016C269.775 -35.8431 270.137 -36.559 270.137 -37.3719C270.137 -38.1848 269.775 -38.9007 269.218 -39.3422L281.501 -62.7701L286.173 -71.6847C286.452 -71.5501 286.755 -71.4694 287.078 -71.4694C288.221 -71.4694 289.165 -72.4276 289.277 -73.6603L323.183 -73.6603C323.213 -73.332 323.306 -73.0197 323.437 -72.7452ZM208.536 -72.7452C208.908 -71.9862 209.641 -71.4694 210.477 -71.4694C210.799 -71.4694 211.107 -71.5501 211.381 -71.6847L228.337 -39.3422C227.779 -38.9007 227.418 -38.1848 227.418 -37.3719C227.418 -36.559 227.779 -35.8431 228.337 -35.4016L211.386 -3.0645C211.107 -3.19908 210.804 -3.27983 210.482 -3.27983C209.949 -3.27983 209.455 -3.06989 209.074 -2.72536C208.634 -2.32698 208.336 -1.751 208.272 -1.09423L174.376 -1.09423C174.273 -2.24086 173.442 -3.15064 172.401 -3.26906C172.328 -3.27984 172.25 -3.27984 172.176 -3.27984C172.103 -3.27984 172.025 -3.27445 171.952 -3.26906C171.712 -3.24215 171.482 -3.17217 171.272 -3.0645L154.317 -35.407C154.356 -35.4393 154.395 -35.4662 154.429 -35.4985C154.923 -35.9453 155.235 -36.6236 155.235 -37.3773C155.235 -38.1902 154.874 -38.9061 154.317 -39.3476L171.267 -71.6793C171.541 -71.5447 171.849 -71.464 172.172 -71.464C172.704 -71.464 173.198 -71.6739 173.579 -72.0239C174.019 -72.4222 174.317 -72.9982 174.376 -73.655L208.277 -73.655C208.312 -73.332 208.4 -73.0197 208.536 -72.7452ZM288.656 435.826C288.255 435.385 287.703 435.115 287.092 435.115C286.77 435.115 286.462 435.196 286.188 435.331L269.232 402.988C269.79 402.547 270.151 401.831 270.151 401.018C270.151 400.205 269.79 399.489 269.232 399.048L281.515 375.62L286.188 366.705C286.467 366.84 286.77 366.92 287.092 366.92C288.236 366.92 289.179 365.962 289.292 364.735L323.198 364.735C323.227 365.063 323.315 365.37 323.452 365.65C323.828 366.409 324.557 366.926 325.397 366.926C325.72 366.926 326.028 366.85 326.302 366.71L343.257 399.053C342.7 399.494 342.338 400.21 342.338 401.023C342.338 401.836 342.7 402.552 343.257 402.994L326.302 435.336C326.023 435.202 325.72 435.121 325.397 435.121C324.254 435.121 323.31 436.079 323.198 437.306L289.292 437.306C289.243 436.725 289.008 436.208 288.656 435.826ZM461.018 326.218C460.617 325.776 460.065 325.502 459.454 325.502C459.131 325.502 458.823 325.583 458.549 325.717L441.594 293.375C442.151 292.933 442.513 292.217 442.513 291.404C442.513 290.591 442.151 289.875 441.594 289.434L454.703 264.423L458.545 257.091C458.823 257.226 459.126 257.307 459.449 257.307C460.593 257.307 461.536 256.349 461.648 255.121L495.555 255.121C495.584 255.45 495.672 255.756 495.809 256.036C496.185 256.795 496.913 257.312 497.754 257.312C498.077 257.312 498.385 257.232 498.658 257.097L515.614 289.439C515.057 289.881 514.695 290.597 514.695 291.41C514.695 292.223 515.057 292.939 515.614 293.38L498.658 325.722C498.385 325.582 498.077 325.507 497.754 325.507C496.61 325.507 495.667 326.465 495.555 327.698L461.648 327.698C461.599 327.117 461.365 326.6 461.018 326.218ZM438.344 -72.7506C438.715 -71.9915 439.448 -71.4747 440.284 -71.4747C440.607 -71.4747 440.914 -71.5501 441.188 -71.6901L458.144 -39.3475C457.587 -38.9061 457.225 -38.1901 457.225 -37.3773C457.225 -36.5644 457.587 -35.8484 458.144 -35.407L441.188 -3.06449C440.91 -3.19907 440.607 -3.27982 440.284 -3.27982C439.14 -3.27982 438.197 -2.3216 438.084 -1.08885L404.183 -1.08885C404.159 -1.33647 404.105 -1.56794 404.022 -1.78868C403.992 -1.86402 403.963 -1.934 403.929 -2.00401C403.553 -2.76304 402.824 -3.27983 401.988 -3.27983C401.666 -3.27983 401.358 -3.19908 401.084 -3.06449L384.134 -35.4016C384.691 -35.8431 385.052 -36.559 385.052 -37.3719C385.052 -37.7057 384.989 -38.0287 384.876 -38.3193C384.72 -38.7339 384.461 -39.0838 384.134 -39.3475L401.089 -71.6901C401.368 -71.5555 401.671 -71.4747 401.993 -71.4747C403.142 -71.4747 404.08 -72.4383 404.193 -73.6657L438.094 -73.6657C438.114 -73.3373 438.207 -73.0251 438.344 -72.7506ZM211.767 -144.999C212.324 -145.441 212.686 -146.156 212.686 -146.969C212.686 -147.782 212.324 -148.498 211.767 -148.94L228.723 -181.282C229.001 -181.148 229.304 -181.067 229.627 -181.067C230.008 -181.067 230.365 -181.174 230.678 -181.363C231.303 -181.74 231.748 -182.44 231.822 -183.258L265.728 -183.258C265.762 -182.897 265.865 -182.563 266.026 -182.267C266.412 -181.551 267.116 -181.067 267.927 -181.067C268.25 -181.067 268.558 -181.142 268.832 -181.282L285.787 -148.94C285.23 -148.498 284.868 -147.782 284.868 -146.969C284.868 -146.156 285.23 -145.441 285.787 -144.999L268.832 -112.657C268.553 -112.791 268.25 -112.872 267.927 -112.872C266.784 -112.872 265.84 -111.914 265.728 -110.686L231.822 -110.686C231.792 -111.015 231.704 -111.322 231.567 -111.601C231.196 -112.36 230.463 -112.877 229.627 -112.877C229.304 -112.877 228.996 -112.802 228.723 -112.662L211.767 -144.999ZM228.723 -108.221C229.001 -108.086 229.304 -108.005 229.627 -108.005C230.771 -108.005 231.714 -108.964 231.826 -110.191L265.733 -110.191C265.762 -109.863 265.85 -109.556 265.987 -109.276C266.358 -108.517 267.092 -108 267.927 -108C268.25 -108 268.558 -108.081 268.832 -108.215L285.787 -75.8729C285.23 -75.4314 284.868 -74.7101 284.868 -73.9026C284.868 -73.0897 285.23 -72.3737 285.787 -71.9323L268.832 -39.5898C268.553 -39.7244 268.25 -39.8051 267.927 -39.8051C266.784 -39.8051 265.84 -38.8469 265.728 -37.6195L231.822 -37.6195C231.709 -38.8469 230.771 -39.8051 229.622 -39.8051C229.544 -39.8051 229.471 -39.7997 229.397 -39.7944C229.158 -39.7674 228.928 -39.6975 228.718 -39.5898L211.762 -71.9323C212.319 -72.3738 212.681 -73.0897 212.681 -73.9026C212.681 -74.4894 212.491 -75.0277 212.178 -75.453C212.056 -75.6145 211.919 -75.7544 211.762 -75.8782L228.723 -108.221ZM170.891 -75.8836C170.852 -75.8513 170.813 -75.819 170.774 -75.7867C170.28 -75.3399 169.962 -74.6616 169.962 -73.9026C169.962 -73.0897 170.324 -72.3738 170.881 -71.9323L153.93 -39.5952C153.657 -39.7298 153.349 -39.8105 153.026 -39.8105C152.489 -39.8105 152 -39.6006 151.619 -39.2507C151.184 -38.8523 150.885 -38.2763 150.822 -37.6249L116.925 -37.6249C116.886 -38.0502 116.744 -38.4432 116.534 -38.7769C116.134 -39.4014 115.474 -39.8159 114.726 -39.8159C114.403 -39.8159 114.095 -39.7352 113.822 -39.6006L96.8661 -71.9431C97.4233 -72.3845 97.7849 -73.1005 97.7849 -73.9134C97.7849 -74.5001 97.5944 -75.0385 97.2815 -75.4637C97.1593 -75.6252 97.0225 -75.7652 96.8661 -75.889L113.822 -108.232C114.1 -108.092 114.403 -108.016 114.726 -108.016C115.87 -108.016 116.813 -108.974 116.925 -110.202L150.832 -110.202C150.944 -108.974 151.883 -108.016 153.031 -108.016C153.354 -108.016 153.662 -108.092 153.935 -108.232L170.891 -75.8836ZM39.4203 -108.474C39.9776 -108.915 40.3393 -109.637 40.3393 -110.444C40.3393 -111.257 39.9776 -111.973 39.4203 -112.414L56.3759 -144.757C56.6545 -144.622 56.9576 -144.542 57.2801 -144.542C58.4239 -144.542 59.3672 -145.5 59.4797 -146.727L93.3859 -146.727C93.4983 -145.5 94.4368 -144.542 95.5854 -144.542C95.908 -144.542 96.216 -144.622 96.4897 -144.757L113.445 -112.414C112.888 -111.973 112.526 -111.257 112.526 -110.444C112.526 -109.631 112.888 -108.915 113.445 -108.474L96.4897 -76.1312C96.216 -76.2658 95.908 -76.3466 95.5854 -76.3466C94.4417 -76.3466 93.4983 -75.3884 93.3859 -74.161L59.4797 -74.161C59.3672 -75.3884 58.4288 -76.3466 57.2801 -76.3466C56.9576 -76.3466 56.6497 -76.2712 56.3759 -76.1313L39.4203 -108.474ZM56.3759 -71.6955C56.6497 -71.5609 56.9576 -71.4801 57.2801 -71.4801C57.6614 -71.4801 58.0182 -71.5878 58.3359 -71.7762C58.9615 -72.153 59.4063 -72.8529 59.4797 -73.6711L93.3859 -73.6711C93.4202 -73.3104 93.5228 -72.9767 93.6841 -72.6806C94.0702 -71.9646 94.774 -71.4801 95.5854 -71.4801C95.908 -71.4801 96.216 -71.5609 96.4897 -71.6955L113.445 -39.3529C112.888 -38.9115 112.526 -38.1955 112.526 -37.3827C112.526 -36.5698 112.888 -35.8538 113.445 -35.4124L96.4897 -3.06988C96.2111 -3.20446 95.908 -3.28523 95.5854 -3.28523C94.4417 -3.28523 93.4983 -2.32702 93.3859 -1.09963L59.4797 -1.09963C59.4503 -1.428 59.3624 -1.73483 59.2255 -2.01477C58.986 -2.49926 58.6047 -2.88146 58.1404 -3.09681C57.8765 -3.22062 57.5832 -3.2906 57.2801 -3.2906C56.9576 -3.2906 56.6545 -3.21524 56.3759 -3.07527L39.4253 -35.4178C39.9825 -35.8592 40.3442 -36.5752 40.3442 -37.3881C40.3442 -38.2009 39.9825 -38.9169 39.4253 -39.3583L56.3759 -71.6955ZM2.01934 -37.135L35.9256 -37.135C36.0087 -36.2307 36.5366 -35.477 37.2649 -35.1379C37.5288 -35.014 37.8221 -34.9441 38.13 -34.9441C38.4526 -34.9441 38.7556 -35.0194 39.0342 -35.1594L55.985 -2.82226C55.4277 -2.38082 55.066 -1.66485 55.066 -0.851985C55.066 -0.0391183 55.4277 0.676855 55.985 1.11829L39.0293 33.4608C39.0146 33.4554 39 33.4446 38.9902 33.4393C38.7263 33.3154 38.433 33.2455 38.1251 33.2455C36.9814 33.2455 36.038 34.2037 35.9256 35.4311L2.02422 35.4311C1.94115 34.5321 1.41326 33.773 0.684985 33.4393C0.421069 33.3154 0.127795 33.2455 -0.180189 33.2455C-0.502759 33.2455 -0.805799 33.3262 -1.08436 33.4608L-18.0351 1.12366C-17.4779 0.682222 -17.1162 -0.0337504 -17.1162 -0.846617C-17.1162 -1.65948 -17.4828 -2.38083 -18.04 -2.82226L-1.08436 -35.1648C-0.805796 -35.0302 -0.502756 -34.9494 -0.180186 -34.9494C0.968435 -34.9494 1.91179 -35.9077 2.01934 -37.135ZM-75.4857 37.6597C-74.9285 37.2183 -74.5668 36.5023 -74.5668 35.6895C-74.5668 34.8766 -74.9285 34.1606 -75.4857 33.7192L-58.5301 1.37665C-58.2564 1.51123 -57.9484 1.59198 -57.6259 1.59198C-56.4821 1.59198 -55.5388 0.633759 -55.4263 -0.593597L-21.525 -0.593596C-21.4419 0.305391 -20.914 1.06446 -20.1857 1.4036C-19.9218 1.52741 -19.6286 1.59738 -19.3255 1.59738C-19.0029 1.59738 -18.6998 1.52201 -18.4213 1.38205L-1.47053 33.7192C-2.02772 34.1606 -2.38942 34.8766 -2.38942 35.6895C-2.38942 36.5023 -2.02284 37.2237 -1.46565 37.6651L-18.4213 70.0076C-18.6998 69.873 -19.0029 69.7923 -19.3255 69.7923C-20.4692 69.7923 -21.4126 70.7505 -21.525 71.9779L-55.4313 71.9779C-55.5437 70.7505 -56.4821 69.7923 -57.6308 69.7923C-57.9533 69.7923 -58.2612 69.8676 -58.535 70.0076L-75.4857 37.6597ZM-18.0302 74.1904C-17.473 73.749 -17.1113 73.033 -17.1113 72.2202C-17.1113 71.4073 -17.473 70.6913 -18.0302 70.2499L-1.0746 37.9074C-1.05995 37.9127 -1.05018 37.9235 -1.03554 37.9289C-0.771558 38.0527 -0.478284 38.1227 -0.170362 38.1227C0.973376 38.1227 1.91667 37.1645 2.0291 35.9371L35.9305 35.9371C36.0038 36.7553 36.4486 37.4552 37.0791 37.832C37.392 38.0204 37.7536 38.1281 38.1349 38.1281C38.4575 38.1281 38.7654 38.0527 39.0391 37.9127L55.9947 70.2553C55.4375 70.6967 55.0759 71.4127 55.0759 72.2255C55.0759 73.0384 55.4375 73.7544 55.9947 74.1958L39.0391 106.538C38.7605 106.404 38.4575 106.323 38.1349 106.323C36.9911 106.323 36.0478 107.281 35.9354 108.509L2.0291 108.509C1.91667 107.281 0.973373 106.323 -0.170365 106.323C-0.492997 106.323 -0.800858 106.398 -1.0746 106.538L-18.0302 74.1904ZM39.4203 110.721C39.9776 110.28 40.3393 109.564 40.3393 108.751C40.3393 107.997 40.0264 107.319 39.5328 106.872C39.4986 106.84 39.4595 106.807 39.4203 106.781L56.3759 74.4381C56.6496 74.5726 56.9576 74.6534 57.2801 74.6534C58.4239 74.6534 59.3672 73.6952 59.4797 72.4678L93.3859 72.4678C93.4983 73.6952 94.4368 74.6534 95.5854 74.6534C95.908 74.6534 96.216 74.578 96.4897 74.4381L113.445 106.781C112.888 107.222 112.526 107.938 112.526 108.751C112.526 109.09 112.59 109.413 112.702 109.704C112.859 110.113 113.118 110.468 113.44 110.726L96.4848 143.069C96.2062 142.929 95.9032 142.854 95.5805 142.854C94.4369 142.854 93.4935 143.812 93.3811 145.039L59.4797 145.039C59.4552 144.786 59.3965 144.549 59.3086 144.323C58.9713 143.457 58.1893 142.848 57.2801 142.848C56.9576 142.848 56.6496 142.924 56.3759 143.064L39.4203 110.721ZM39.4253 183.793C39.9825 183.352 40.3442 182.636 40.3442 181.823C40.3442 181.01 39.9825 180.294 39.4253 179.853L56.3808 147.51C56.6594 147.645 56.9624 147.725 57.285 147.725C58.4288 147.725 59.3721 146.767 59.4845 145.54L93.3859 145.54C93.4153 145.863 93.5081 146.17 93.6401 146.444C93.6401 146.444 93.6401 146.45 93.645 146.45C94.0165 147.209 94.7496 147.726 95.5854 147.726C95.908 147.726 96.216 147.645 96.4897 147.51L113.445 179.853C112.893 180.294 112.526 181.01 112.526 181.823C112.526 182.636 112.888 183.352 113.445 183.793L96.4897 216.136C96.2111 215.996 95.908 215.92 95.5854 215.92C94.4417 215.92 93.4983 216.879 93.3859 218.106L59.4797 218.106C59.4503 217.778 59.3623 217.471 59.2255 217.191C58.8492 216.432 58.1208 215.915 57.285 215.915C56.9624 215.915 56.6545 215.99 56.3808 216.13L39.4253 183.793ZM56.3759 220.577C56.6545 220.712 56.9576 220.792 57.2801 220.792C58.4239 220.792 59.3672 219.834 59.4797 218.607L93.3859 218.607C93.4153 218.935 93.5032 219.242 93.6401 219.522C94.0165 220.281 94.7448 220.798 95.5805 220.798C95.9032 220.798 96.2111 220.717 96.4848 220.582L113.44 252.925C112.888 253.366 112.521 254.082 112.521 254.895C112.521 255.708 112.883 256.424 113.44 256.865L112.58 258.507L96.4897 289.208C96.2111 289.068 95.908 288.993 95.5854 288.993C94.4417 288.993 93.4983 289.951 93.3859 291.178L59.4797 291.178C59.4259 290.602 59.1961 290.091 58.8443 289.703C58.4435 289.262 57.8911 288.993 57.2801 288.993C56.9576 288.993 56.6496 289.073 56.3759 289.208L39.4203 256.865C39.9776 256.424 40.3393 255.708 40.3393 254.895C40.3393 254.308 40.1486 253.77 39.8358 253.345C39.7136 253.183 39.5768 253.043 39.4203 252.919L56.3759 220.577ZM-18.0302 293.391C-17.473 292.949 -17.1114 292.233 -17.1114 291.42C-17.1114 290.608 -17.473 289.892 -18.0302 289.45L-1.07461 257.108C-0.795982 257.242 -0.493004 257.323 -0.170372 257.323C0.973366 257.323 1.91666 256.365 2.02909 255.137L35.9354 255.137C35.9647 255.466 36.0527 255.778 36.1896 256.053C36.5659 256.812 37.2942 257.328 38.13 257.328C38.4526 257.328 38.7605 257.253 39.0342 257.113L55.9898 289.456C55.4326 289.897 55.0709 290.613 55.0709 291.426C55.0709 292.239 55.4326 292.955 55.9898 293.396L39.0342 325.739C38.7605 325.604 38.4526 325.523 38.13 325.523C36.9862 325.523 36.0429 326.481 35.9305 327.709L2.02421 327.709C1.91178 326.481 0.96848 325.523 -0.175257 325.523C-0.497889 325.523 -0.805812 325.599 -1.07949 325.739L-18.0302 293.391ZM96.4897 362.269C96.2111 362.135 95.908 362.054 95.5854 362.054C94.4417 362.054 93.4983 363.012 93.3859 364.24L59.4796 364.24C59.3672 363.012 58.4287 362.054 57.2801 362.054C56.9576 362.054 56.6496 362.129 56.3759 362.269L39.4203 329.927C39.9776 329.485 40.3393 328.769 40.3393 327.956C40.3393 327.203 40.0264 326.525 39.5328 326.078C39.4937 326.045 39.4594 326.013 39.4203 325.986L56.3759 293.644C56.6545 293.784 56.9576 293.859 57.2801 293.859C58.4239 293.859 59.3672 292.901 59.4797 291.673L93.3859 291.673C93.4983 292.901 94.4417 293.859 95.5854 293.859C95.908 293.859 96.216 293.784 96.4897 293.644L113.445 325.986C112.888 326.428 112.526 327.144 112.526 327.956C112.526 328.629 112.776 329.238 113.176 329.679C113.26 329.771 113.352 329.851 113.45 329.932L96.4897 362.269ZM154.326 329.927C154.879 329.485 155.245 328.769 155.245 327.956C155.245 327.203 154.932 326.525 154.439 326.078C154.4 326.045 154.361 326.013 154.326 325.986L171.282 293.644C171.561 293.784 171.864 293.859 172.186 293.859C173.33 293.859 174.273 292.901 174.386 291.673L208.292 291.673C208.404 292.901 209.343 293.859 210.491 293.859C210.814 293.859 211.122 293.784 211.396 293.644L228.346 325.981C228.024 326.239 227.765 326.595 227.603 327.004C227.491 327.294 227.427 327.617 227.427 327.956C227.427 328.769 227.789 329.485 228.346 329.927L211.396 362.264C211.117 362.129 210.814 362.049 210.491 362.049C209.651 362.049 208.918 362.565 208.546 363.33C208.409 363.604 208.321 363.911 208.292 364.24L174.391 364.24C174.278 363.012 173.335 362.054 172.191 362.054C171.864 362.054 171.556 362.135 171.282 362.275L154.326 329.927ZM154.331 402.983C154.888 402.541 155.25 401.825 155.25 401.012C155.25 400.2 154.888 399.484 154.331 399.042L171.282 366.705C171.561 366.84 171.864 366.92 172.186 366.92C173.027 366.92 173.76 366.404 174.132 365.639C174.268 365.365 174.356 365.058 174.386 364.729L208.287 364.729C208.4 365.957 209.338 366.915 210.487 366.915C210.814 366.915 211.122 366.834 211.401 366.694L228.351 399.031C227.794 399.473 227.432 400.189 227.432 401.002C227.432 401.815 227.794 402.53 228.351 402.972L211.401 435.309C211.122 435.169 210.814 435.088 210.487 435.088C209.343 435.088 208.4 436.047 208.287 437.274L174.386 437.274C174.361 437.032 174.307 436.8 174.224 436.58C173.892 435.702 173.105 435.088 172.186 435.088C171.864 435.088 171.556 435.164 171.282 435.304L154.331 402.983ZM211.396 508.381C211.117 508.241 210.814 508.166 210.491 508.166C209.348 508.166 208.404 509.124 208.292 510.352L174.386 510.352C174.273 509.124 173.33 508.166 172.186 508.166C171.864 508.166 171.556 508.241 171.282 508.381L154.326 476.039C154.884 475.597 155.245 474.881 155.245 474.068C155.245 473.256 154.884 472.54 154.326 472.098L171.277 439.761C171.556 439.901 171.864 439.976 172.186 439.976C173.33 439.976 174.273 439.018 174.386 437.791L208.287 437.791C208.312 438.033 208.365 438.27 208.448 438.485C208.561 438.776 208.722 439.045 208.922 439.266C209.323 439.707 209.876 439.976 210.487 439.976C210.809 439.976 211.117 439.901 211.391 439.761L228.341 472.093C227.784 472.534 227.423 473.25 227.423 474.063C227.423 474.397 227.486 474.72 227.599 475.011C227.755 475.425 228.014 475.775 228.341 476.039L211.396 508.381ZM268.851 471.856C268.573 471.721 268.269 471.641 267.947 471.641C266.803 471.641 265.86 472.604 265.747 473.832L231.841 473.832C231.817 473.584 231.763 473.347 231.68 473.126C231.347 472.249 230.561 471.635 229.642 471.635C229.319 471.635 229.011 471.711 228.737 471.851L211.787 439.519C212.339 439.077 212.706 438.361 212.706 437.549C212.706 437.209 212.642 436.886 212.53 436.596C212.373 436.187 212.114 435.831 211.792 435.573L228.742 403.236C229.016 403.37 229.324 403.451 229.647 403.451C230.79 403.451 231.734 402.493 231.846 401.265L265.752 401.265C265.865 402.493 266.803 403.451 267.952 403.451C268.274 403.451 268.582 403.37 268.856 403.236L285.812 435.578C285.254 436.02 284.893 436.736 284.893 437.549C284.893 438.221 285.142 438.83 285.538 439.271C285.621 439.363 285.714 439.449 285.812 439.524L268.851 471.856ZM400.708 435.573C400.151 436.014 399.789 436.73 399.789 437.543C399.789 438.356 400.151 439.072 400.708 439.513L383.752 471.856C383.474 471.716 383.171 471.641 382.848 471.641C381.704 471.641 380.761 472.604 380.649 473.832L346.742 473.832C346.63 472.604 345.686 471.641 344.543 471.641C344.22 471.641 343.912 471.721 343.639 471.856L326.683 439.513C327.24 439.072 327.602 438.356 327.602 437.543C327.602 436.79 327.289 436.111 326.795 435.664C326.761 435.632 326.717 435.6 326.683 435.573L343.639 403.23C343.917 403.365 344.22 403.446 344.543 403.446C345.686 403.446 346.63 402.487 346.742 401.26L380.649 401.26C380.761 402.487 381.699 403.446 382.848 403.446C383.171 403.446 383.479 403.365 383.752 403.23L400.708 435.573ZM383.752 398.795C383.474 398.66 383.171 398.579 382.848 398.579C381.704 398.579 380.761 399.537 380.649 400.765L346.742 400.765C346.688 400.189 346.459 399.677 346.107 399.29C345.706 398.848 345.154 398.579 344.543 398.579C344.22 398.579 343.912 398.66 343.639 398.795L326.683 366.452C327.24 366.011 327.602 365.295 327.602 364.482C327.602 363.895 327.411 363.357 327.098 362.931C326.976 362.77 326.839 362.63 326.683 362.506L343.639 330.164C343.917 330.298 344.22 330.379 344.543 330.379C345.535 330.379 346.376 329.658 346.654 328.662C346.698 328.511 346.728 328.355 346.742 328.188L380.644 328.188C380.756 329.415 381.695 330.374 382.843 330.374C383.166 330.374 383.474 330.293 383.747 330.158L400.698 362.495C400.317 362.802 400.024 363.233 399.882 363.744C399.818 363.976 399.779 364.218 399.779 364.476C399.779 365.289 400.141 366.005 400.698 366.447L383.752 398.795ZM441.208 362.253C440.929 362.113 440.626 362.038 440.303 362.038C439.16 362.038 438.216 362.996 438.104 364.223L404.198 364.223C404.085 362.996 403.147 362.038 401.998 362.038C401.676 362.038 401.368 362.113 401.094 362.253L384.143 329.916C384.471 329.658 384.73 329.302 384.886 328.888C384.999 328.597 385.062 328.274 385.062 327.94C385.062 327.187 384.749 326.508 384.256 326.062C384.217 326.029 384.182 325.997 384.143 325.97L401.099 293.628C401.377 293.768 401.681 293.843 402.003 293.843C403.147 293.843 404.09 292.885 404.203 291.657L438.109 291.657C438.221 292.885 439.16 293.843 440.308 293.843C440.631 293.843 440.934 293.768 441.213 293.628L458.168 325.97C457.611 326.412 457.249 327.127 457.249 327.94C457.249 328.613 457.499 329.222 457.894 329.663C457.978 329.755 458.07 329.841 458.168 329.916L441.208 362.253ZM573.069 325.965C572.517 326.406 572.15 327.122 572.15 327.935C572.15 328.748 572.512 329.464 573.069 329.905L556.114 362.248C555.835 362.108 555.532 362.032 555.21 362.032C554.066 362.032 553.122 362.991 553.01 364.218L519.104 364.218C518.991 362.991 518.048 362.032 516.904 362.032C516.582 362.032 516.274 362.108 516 362.248L499.044 329.905C499.602 329.464 499.963 328.748 499.963 327.935C499.963 327.181 499.651 326.503 499.157 326.056C499.123 326.024 499.084 325.992 499.044 325.965L516 293.622C516.274 293.762 516.582 293.838 516.904 293.838C518.048 293.838 518.991 292.879 519.104 291.652L553.01 291.652C553.122 292.879 554.061 293.838 555.21 293.838C555.532 293.838 555.84 293.762 556.114 293.622L573.069 325.965ZM573.069 252.898C572.517 253.339 572.15 254.055 572.15 254.868C572.15 255.681 572.512 256.397 573.069 256.838L556.114 289.181C555.835 289.046 555.532 288.966 555.21 288.966C554.066 288.966 553.122 289.924 553.01 291.151L519.104 291.151C519.05 290.575 518.82 290.064 518.468 289.676C518.068 289.235 517.515 288.966 516.904 288.966C516.582 288.966 516.274 289.046 516 289.181L499.044 256.838C499.602 256.397 499.963 255.681 499.963 254.868C499.963 254.281 499.773 253.743 499.46 253.318C499.338 253.156 499.201 253.016 499.044 252.893L516 220.55C516.279 220.69 516.582 220.765 516.904 220.765C518.048 220.765 518.991 219.807 519.104 218.58L553.01 218.58C553.122 219.807 554.061 220.765 555.21 220.765C555.532 220.765 555.84 220.69 556.114 220.55L573.069 252.898ZM515.614 216.367C515.057 216.809 514.695 217.525 514.695 218.338C514.695 219.15 515.057 219.866 515.614 220.308L498.658 252.65C498.38 252.516 498.077 252.435 497.754 252.435C496.61 252.435 495.667 253.393 495.555 254.621L461.648 254.621C461.536 253.393 460.597 252.435 459.449 252.435C459.126 252.435 458.818 252.516 458.545 252.65L441.589 220.308C442.146 219.866 442.508 219.15 442.508 218.338C442.508 217.584 442.195 216.906 441.701 216.459C441.662 216.426 441.628 216.394 441.589 216.367L458.545 184.025C458.823 184.165 459.126 184.24 459.449 184.24C460.593 184.24 461.536 183.282 461.648 182.054L495.555 182.054C495.667 183.282 496.61 184.24 497.754 184.24C498.077 184.24 498.385 184.165 498.658 184.025L515.614 216.367ZM498.658 179.589C498.38 179.449 498.077 179.374 497.754 179.374C496.61 179.374 495.667 180.332 495.555 181.559L461.648 181.559C461.595 180.983 461.365 180.472 461.013 180.084C460.612 179.643 460.06 179.374 459.449 179.374C459.126 179.374 458.818 179.454 458.545 179.589L441.589 147.246C442.146 146.805 442.508 146.089 442.508 145.276C442.508 144.689 442.317 144.151 442.004 143.726C441.882 143.564 441.745 143.424 441.589 143.3L458.535 110.974C458.809 111.109 459.112 111.184 459.429 111.184C459.889 111.184 460.314 111.028 460.666 110.77C461.204 110.377 461.575 109.736 461.643 108.998L495.53 108.998C495.584 109.574 495.814 110.086 496.166 110.474C496.566 110.915 497.119 111.184 497.73 111.184C498.052 111.184 498.36 111.109 498.634 110.969L515.589 143.311C515.032 143.753 514.671 144.469 514.671 145.282C514.671 146.1 515.037 146.821 515.599 147.263L498.658 179.589ZM556.094 143.069C555.82 142.934 555.513 142.854 555.19 142.854C554.046 142.854 553.103 143.812 552.99 145.039L519.104 145.039C518.996 143.807 518.053 142.838 516.904 142.838C516.582 142.838 516.274 142.913 516 143.053L499.044 110.71C499.602 110.269 499.963 109.548 499.963 108.735C499.963 107.916 499.597 107.2 499.035 106.759L515.976 74.4381C516.254 74.578 516.557 74.6534 516.88 74.6534C518.024 74.6534 518.967 73.6952 519.079 72.4624L552.986 72.4624C553.098 73.6898 554.036 74.6534 555.185 74.6534C555.508 74.6534 555.816 74.578 556.089 74.4381L573.04 106.781C572.483 107.222 572.121 107.938 572.121 108.751C572.121 108.837 572.126 108.918 572.131 108.998C572.194 109.709 572.541 110.328 573.04 110.721L556.094 143.069ZM630.5 70.2445C629.943 70.6859 629.581 71.4019 629.581 72.2148C629.581 73.0277 629.943 73.7436 630.5 74.1851L613.545 106.528C613.266 106.393 612.963 106.312 612.641 106.312C611.497 106.312 610.553 107.27 610.441 108.498L576.535 108.498C576.422 107.27 575.479 106.312 574.335 106.312C574.013 106.312 573.705 106.393 573.431 106.528L556.48 74.1851C556.979 73.7867 557.321 73.173 557.385 72.4624C557.389 72.3816 557.394 72.2956 557.394 72.2148C557.394 71.4019 557.033 70.6859 556.475 70.2445L573.426 37.902C573.705 38.0366 574.008 38.1173 574.33 38.1173C575.474 38.1173 576.417 37.1591 576.53 35.9263L610.441 35.9263C610.553 37.1537 611.492 38.1119 612.641 38.1119C612.963 38.1119 613.271 38.0366 613.545 37.8966L630.5 70.2445ZM573.045 33.7138C572.493 34.1553 572.126 34.8712 572.126 35.6841C572.126 36.4969 572.488 37.2129 573.045 37.6544L556.094 69.9969C555.816 69.8623 555.513 69.7816 555.19 69.7816C554.046 69.7816 553.103 70.7398 552.99 71.9672C552.99 71.9672 552.99 71.9672 552.99 71.9725L519.084 71.9725C519.03 71.3965 518.801 70.8851 518.449 70.4976C518.048 70.0561 517.496 69.787 516.885 69.787C516.562 69.787 516.254 69.8623 515.98 70.0023L499.025 37.6598C499.582 37.2183 499.944 36.5023 499.944 35.6895C499.944 35.1027 499.753 34.5644 499.44 34.1391C499.318 33.9776 499.181 33.8376 499.025 33.7138L515.98 1.3713C516.259 1.50588 516.562 1.58663 516.885 1.58663C518.028 1.58663 518.972 0.628413 519.084 -0.598943L552.99 -0.598942C553.103 0.628414 554.041 1.58664 555.19 1.58664C555.513 1.58664 555.82 1.50589 556.094 1.3713L573.045 33.7138ZM515.594 -2.81684C515.037 -2.37543 514.675 -1.65946 514.675 -0.846593C514.675 -0.0337271 515.037 0.682246 515.594 1.12368L498.639 33.4662C498.36 33.3316 498.057 33.2509 497.735 33.2509C496.591 33.2509 495.647 34.2091 495.535 35.4365L461.629 35.4365C461.516 34.2091 460.578 33.2509 459.429 33.2509C459.107 33.2509 458.799 33.3316 458.525 33.4662L441.569 1.12368C442.127 0.682243 442.488 -0.0337303 442.488 -0.846597C442.488 -1.60026 442.176 -2.27854 441.682 -2.72535C441.643 -2.75764 441.609 -2.78993 441.569 -2.81684L458.53 -35.1594C458.809 -35.0248 459.112 -34.9441 459.434 -34.9441C460.578 -34.9441 461.521 -35.9023 461.634 -37.1296L495.54 -37.1296C495.652 -35.9023 496.591 -34.9441 497.739 -34.9441C498.062 -34.9441 498.37 -35.0194 498.644 -35.1594L515.594 -2.81684ZM458.53 -108.226C458.809 -108.086 459.112 -108.011 459.434 -108.011C460.578 -108.011 461.521 -108.969 461.634 -110.196L495.54 -110.196C495.652 -108.969 496.596 -108.011 497.739 -108.011C498.062 -108.011 498.37 -108.086 498.644 -108.226L515.599 -75.8836C515.042 -75.4422 514.68 -74.7262 514.68 -73.9133C514.68 -73.1005 515.042 -72.3845 515.599 -71.9431L498.644 -39.6006C498.365 -39.7405 498.062 -39.8159 497.739 -39.8159C496.596 -39.8159 495.652 -38.8577 495.54 -37.6303L461.634 -37.6303C461.58 -38.2063 461.35 -38.7177 460.998 -39.1053C460.597 -39.5467 460.045 -39.8213 459.434 -39.8213C459.112 -39.8213 458.804 -39.7405 458.53 -39.6059L441.574 -71.9485C442.132 -72.3899 442.493 -73.1059 442.493 -73.9187C442.493 -74.5055 442.303 -75.0438 441.99 -75.4691C441.868 -75.6306 441.731 -75.7706 441.574 -75.8944L458.53 -108.226ZM400.693 -75.8782C400.136 -75.4368 399.774 -74.7209 399.774 -73.908C399.774 -73.5742 399.838 -73.2512 399.95 -72.9605C400.107 -72.546 400.371 -72.1961 400.693 -71.9323L383.738 -39.5898C383.459 -39.7298 383.156 -39.8051 382.833 -39.8051C381.685 -39.8051 380.746 -38.8415 380.634 -37.6141L346.728 -37.6141C346.615 -38.8415 345.677 -39.7997 344.528 -39.7997C344.45 -39.7997 344.377 -39.7944 344.303 -39.789C344.064 -39.7621 343.834 -39.6921 343.624 -39.5844L326.668 -71.9269C327.225 -72.3684 327.587 -73.0843 327.587 -73.8972C327.587 -74.484 327.397 -75.0223 327.084 -75.4476C326.962 -75.6091 326.825 -75.749 326.668 -75.8729L343.624 -108.215C343.902 -108.081 344.206 -108 344.528 -108C345.672 -108 346.615 -108.958 346.728 -110.186L380.634 -110.186C380.746 -108.958 381.685 -108 382.833 -108C383.156 -108 383.464 -108.081 383.738 -108.215L400.693 -75.8782ZM343.243 -112.409C342.685 -111.967 342.324 -111.252 342.324 -110.439C342.324 -109.626 342.685 -108.91 343.243 -108.468L326.287 -76.1259C326.013 -76.2605 325.705 -76.3412 325.383 -76.3412C324.239 -76.3412 323.296 -75.383 323.183 -74.1556L289.277 -74.1556C289.174 -75.3022 288.348 -76.212 287.307 -76.3304C287.234 -76.3412 287.156 -76.3412 287.082 -76.3412C287.004 -76.3412 286.931 -76.3358 286.858 -76.3304C286.618 -76.3035 286.388 -76.2335 286.178 -76.1259L269.223 -108.468C269.78 -108.91 270.142 -109.631 270.142 -110.439C270.142 -111.192 269.829 -111.871 269.335 -112.317C269.301 -112.35 269.257 -112.382 269.223 -112.414L286.178 -144.757C286.457 -144.622 286.76 -144.542 287.082 -144.542C288.226 -144.542 289.17 -145.5 289.282 -146.727L323.188 -146.727C323.301 -145.5 324.239 -144.542 325.388 -144.542C325.71 -144.542 326.018 -144.622 326.292 -144.757L343.243 -112.409ZM343.243 -185.476C342.685 -185.034 342.324 -184.318 342.324 -183.505C342.324 -182.693 342.685 -181.977 343.243 -181.535L326.287 -149.193C326.013 -149.327 325.705 -149.408 325.383 -149.408C324.239 -149.408 323.296 -148.45 323.183 -147.217L289.277 -147.217C289.238 -147.642 289.096 -148.035 288.886 -148.369C288.485 -148.993 287.825 -149.403 287.078 -149.403C286.755 -149.403 286.447 -149.322 286.173 -149.187L269.218 -181.53C269.775 -181.971 270.137 -182.687 270.137 -183.5C270.137 -184.087 269.946 -184.625 269.633 -185.05C269.511 -185.212 269.374 -185.352 269.218 -185.476L286.173 -217.818C286.452 -217.678 286.755 -217.603 287.078 -217.603C288.221 -217.603 289.165 -218.561 289.277 -219.788L323.183 -219.788C323.296 -218.561 324.234 -217.603 325.383 -217.603C325.705 -217.603 326.013 -217.678 326.287 -217.818L343.243 -185.476ZM285.792 -222.006C285.235 -221.565 284.873 -220.849 284.873 -220.036C284.873 -219.223 285.235 -218.507 285.792 -218.066L268.837 -185.723C268.558 -185.858 268.255 -185.939 267.932 -185.939C266.789 -185.939 265.845 -184.98 265.733 -183.753L231.826 -183.753C231.714 -184.98 230.776 -185.939 229.627 -185.939C229.304 -185.939 228.996 -185.858 228.723 -185.723L211.767 -218.066C212.324 -218.507 212.686 -219.223 212.686 -220.036C212.686 -220.849 212.324 -221.565 211.767 -222.006L228.723 -254.349C228.996 -254.209 229.304 -254.134 229.627 -254.134C230.771 -254.134 231.714 -255.092 231.826 -256.319L265.733 -256.319C265.845 -255.092 266.789 -254.134 267.932 -254.134C268.255 -254.134 268.563 -254.209 268.837 -254.349L285.792 -222.006Z" fill="url(#paint0_linear_3429_219)"/>
<defs>
<linearGradient id="paint0_linear_3429_219" x1="158.172" y1="309.201" x2="15.5812" y2="97.6159" gradientUnits="userSpaceOnUse">
<stop stop-color="#4D9CFE" stop-opacity="0"/>
<stop offset="1" stop-color="#4DB4FE"/>
</linearGradient>
</defs>
</svg>
