<svg width="1834" height="958" viewBox="0 0 1834 958" fill="none" xmlns="http://www.w3.org/2000/svg">
<path d="M508.435 938L500.435 947L508.435 956" stroke="#70A2CB" stroke-width="2"/>
<path d="M518.435 938L509.435 947L518.435 956" stroke="#70A2CB" stroke-width="2"/>
<path d="M1324.43 956L1332.43 947L1324.43 938" stroke="#70A2CB" stroke-width="2"/>
<path d="M1314.43 956L1323.43 947L1314.43 938" stroke="#70A2CB" stroke-width="2"/>
<path d="M1265.67 6C1265.67 8.94552 1268.05 11.3333 1271 11.3333C1273.95 11.3333 1276.33 8.94552 1276.33 6C1276.33 3.05448 1273.95 0.666667 1271 0.666667C1268.05 0.666667 1265.67 3.05448 1265.67 6ZM1271 7H1821V5H1271V7ZM1832 18V935H1834V18H1832ZM1821 946H1334V948H1821V946ZM1832 935C1832 941.075 1827.08 946 1821 946V948C1828.18 948 1834 942.18 1834 935H1832ZM1821 7C1827.08 7 1832 11.9249 1832 18H1834C1834 10.8203 1828.18 5 1821 5V7Z" fill="#557A99"/>
<path d="M568.333 6C568.333 8.94552 565.946 11.3333 563 11.3333C560.054 11.3333 557.667 8.94552 557.667 6C557.667 3.05448 560.054 0.666667 563 0.666667C565.946 0.666667 568.333 3.05448 568.333 6ZM563 7H13V5H563V7ZM2 18V935H0V18H2ZM13 946L498.935 946V948L13 948V946ZM2 935C2 941.075 6.92487 946 13 946V948C5.82031 948 0 942.18 0 935H2ZM13 7C6.92487 7 2 11.9249 2 18H0C0 10.8203 5.82031 5 13 5V7Z" fill="#557A99"/>
</svg>
