<svg width="192" height="192" viewBox="0 0 192 192" fill="none" xmlns="http://www.w3.org/2000/svg">
<circle cx="96" cy="96" r="95.5" fill="url(#paint0_radial_3417_3217)" stroke="#CCE7FF"/>
<path fill-rule="evenodd" clip-rule="evenodd" d="M100.992 76.6936C100.408 75.5384 100.025 74.28 99.8622 72.9418C99.8566 72.9112 99.8512 72.8807 99.846 72.8504C99.7676 72.3956 99.7236 71.9718 99.7236 71.5862C99.7236 69.9009 100.09 68.2995 100.749 66.8548C101.279 65.6921 101.998 64.6309 102.869 63.709C102.874 63.7039 102.878 63.6988 102.883 63.6937C102.984 63.5876 103.086 63.4832 103.191 63.3808C105.324 61.2916 108.267 60 111.517 60C118.029 60 123.31 65.1877 123.31 71.5862C123.31 71.9975 123.26 72.4523 123.171 72.9418C123.049 73.9455 122.803 74.9043 122.441 75.8092C122.424 75.8522 122.407 75.8951 122.389 75.9379C122.212 76.3663 122.008 76.7824 121.78 77.1852C121.78 77.1852 121.78 77.1852 121.78 77.1852C121.752 77.2497 121.725 77.3144 121.697 77.3793C121.184 78.577 120.575 79.8349 119.915 81.1035C119.828 81.2697 119.741 81.436 119.652 81.6025C117.725 85.2385 115.419 88.9076 113.755 91.4438C113.754 91.4458 113.753 91.4477 113.752 91.4496C113.565 91.7339 113.387 92.0039 113.218 92.258C112.191 93.802 111.517 94.7586 111.517 94.7586C111.517 94.7586 110.52 93.346 109.107 91.1831C107.381 88.5406 105.033 84.778 103.12 81.1035C102.423 79.7653 101.784 78.4388 101.254 77.1823C101.162 77.0216 101.075 76.8587 100.992 76.6936ZM117.3 70.4498C116.762 67.7955 114.376 65.7931 111.517 65.7931C111.104 65.7931 110.701 65.8348 110.313 65.9141C110.306 65.9155 110.3 65.9168 110.293 65.9182C108.735 66.2417 107.403 67.1703 106.564 68.4417C105.967 69.3475 105.62 70.4273 105.62 71.5862C105.62 74.784 108.262 77.3793 111.517 77.3793C114.106 77.3793 116.307 75.7372 117.099 73.456C117.1 73.4518 117.102 73.4477 117.103 73.4436C117.304 72.8605 117.413 72.2358 117.413 71.5862C117.413 71.1973 117.374 70.8173 117.3 70.4498ZM98.95 81.1035C100.587 84.4718 102.668 87.9799 104.423 90.7753C105.405 92.3382 106.306 93.7117 107.007 94.7586H97.2188V81.1035H98.95ZM97.7478 64.5147C97.5571 64.8753 97.3806 65.2444 97.2188 65.6214V64.2637C97.3941 64.339 97.5705 64.4226 97.7478 64.5147ZM116.026 94.7586C116.727 93.7118 117.628 92.3384 118.61 90.7758C120.366 87.9801 122.447 84.4715 124.084 81.1035H125.794C127.908 85.2385 129.203 89.8614 129.467 94.7586H116.026ZM109.586 98.4828H97.2188V113.379H107.706C108.845 108.97 109.544 103.947 109.642 98.5626L109.586 98.4828ZM113.366 98.5974C113.272 103.879 112.628 108.88 111.544 113.379H125.127C127.635 108.937 129.177 103.876 129.467 98.4828H113.447L113.366 98.5974ZM67.1758 77.3793C71.7672 70.6626 78.6955 65.6699 86.7897 63.5723C83.5856 66.6108 80.8843 71.425 79.0037 77.3793H67.1758ZM61.2905 94.7586C61.5538 89.8614 62.8491 85.2385 64.9629 81.1035H77.9715C76.9656 85.2813 76.3381 89.8923 76.1779 94.7586H61.2905ZM65.6303 113.379C63.1222 108.937 61.5804 103.876 61.2905 98.4828H76.1474C76.2346 103.807 76.8805 108.848 77.9716 113.379H65.6303ZM85.2074 129.218C78.2908 127.062 72.3185 122.765 68.0657 117.103H79.0037C80.5661 122.05 82.6947 126.209 85.2074 129.218ZM122.691 117.103C118.105 123.209 111.52 127.727 103.907 129.685C106.595 126.646 108.867 122.311 110.512 117.103H122.691ZM93.4947 63.8696C90.781 64.4856 87.6578 67.1018 84.9221 72.5732C84.1916 74.0341 83.5216 75.6428 82.9247 77.3793H93.4947L93.4947 63.8696ZM93.4947 81.1035H81.8097C80.753 85.1943 80.0754 89.8129 79.9042 94.7586H93.4947V81.1035ZM93.4947 98.4828H79.872C79.9652 103.898 80.6651 108.948 81.8098 113.379H93.4947V98.4828ZM93.4947 117.103H82.9247C83.5216 118.84 84.1916 120.449 84.9221 121.909C87.6578 127.381 90.781 129.997 93.4947 130.613L93.4947 117.103ZM97.2188 130.219V117.103H106.591C105.994 118.84 105.324 120.449 104.594 121.909C102.253 126.591 99.628 129.183 97.2188 130.219Z" fill="#7B9DB9"/>
<defs>
<radialGradient id="paint0_radial_3417_3217" cx="0" cy="0" r="1" gradientUnits="userSpaceOnUse" gradientTransform="translate(96 96) rotate(90) scale(96)">
<stop offset="0.755208" stop-color="#BDE1FF" stop-opacity="0"/>
<stop offset="0.875" stop-color="#BDE1FF" stop-opacity="0.1"/>
<stop offset="1" stop-color="#ACDAFF" stop-opacity="0.34"/>
</radialGradient>
</defs>
</svg>
