<svg width="192" height="192" viewBox="0 0 192 192" fill="none" xmlns="http://www.w3.org/2000/svg">
<circle cx="96" cy="96" r="95.5" fill="url(#paint0_radial_3417_3206)" stroke="#CCE7FF"/>
<path fill-rule="evenodd" clip-rule="evenodd" d="M117.104 100.965C117.104 98.9084 115.437 97.2412 113.38 97.2412C106.247 97.2412 85.7543 97.2412 78.6214 97.2412C76.5644 97.2412 74.8972 98.9084 74.8972 100.965V130.758C74.8972 131.444 75.4534 132 76.1386 132H115.863C116.548 132 117.104 131.444 117.104 130.758V100.965ZM97.3054 106.78L92.3398 121.677C92.1238 122.326 92.4751 123.03 93.1256 123.247C93.7749 123.463 94.4787 123.112 94.696 122.461L99.6615 107.565C99.8775 106.915 99.5262 106.211 98.8757 105.994C98.2265 105.778 97.5226 106.129 97.3054 106.78ZM89.5852 121.38L85.079 114.621L89.5852 107.861C89.9651 107.29 89.8111 106.519 89.2414 106.139C88.6703 105.76 87.8994 105.913 87.5196 106.483L82.554 113.932C82.276 114.349 82.276 114.892 82.554 115.309L87.5196 122.758C87.8994 123.328 88.6703 123.481 89.2414 123.102C89.8111 122.722 89.9651 121.951 89.5852 121.38ZM104.482 122.758L109.447 115.309C109.725 114.892 109.725 114.349 109.447 113.932L104.482 106.483C104.102 105.913 103.331 105.76 102.76 106.139C102.19 106.519 102.036 107.29 102.416 107.861L106.922 114.621L102.416 121.38C102.036 121.951 102.19 122.722 102.76 123.102C103.331 123.481 104.102 123.328 104.482 122.758Z" fill="#7B9DB9"/>
<path d="M96.0002 94.7586C105.598 94.7586 113.379 86.9776 113.379 77.3793C113.379 67.781 105.598 60 96.0002 60C86.4018 60 78.6208 67.781 78.6208 77.3793C78.6208 86.9776 86.4018 94.7586 96.0002 94.7586Z" fill="#7B9DB9"/>
<path fill-rule="evenodd" clip-rule="evenodd" d="M72.4139 108.982C67.7748 114.838 64.9656 122.445 64.9656 130.759C64.9656 131.444 65.5217 132 66.207 132H72.6261C72.4883 131.612 72.4139 131.194 72.4139 130.759V108.982Z" fill="#7B9DB9"/>
<path fill-rule="evenodd" clip-rule="evenodd" d="M119.586 108.982V130.759C119.586 131.194 119.512 131.612 119.374 132H125.793C126.478 132 127.035 131.444 127.035 130.759C127.035 122.445 124.225 114.838 119.586 108.982Z" fill="#7B9DB9"/>
<defs>
<radialGradient id="paint0_radial_3417_3206" cx="0" cy="0" r="1" gradientUnits="userSpaceOnUse" gradientTransform="translate(96 96) rotate(90) scale(96)">
<stop offset="0.755208" stop-color="#BDE1FF" stop-opacity="0"/>
<stop offset="0.875" stop-color="#BDE1FF" stop-opacity="0.1"/>
<stop offset="1" stop-color="#ACDAFF" stop-opacity="0.34"/>
</radialGradient>
</defs>
</svg>
