<svg width="192" height="192" viewBox="0 0 192 192" fill="none" xmlns="http://www.w3.org/2000/svg">
<circle cx="96" cy="96" r="95.5" fill="url(#paint0_radial_3417_3188)" stroke="#CCE7FF"/>
<path fill-rule="evenodd" clip-rule="evenodd" d="M61.2407 68.9653C61.2407 66.7562 63.0316 64.9653 65.2407 64.9653H75.8614C78.0705 64.9653 79.8614 66.7562 79.8614 68.9653V124.276C79.8614 126.485 78.0706 128.276 75.8614 128.276H65.2407C63.0316 128.276 61.2407 126.485 61.2407 124.276V68.9653ZM64.9644 86.0688H76.1368V89.7929H64.9644V86.0688ZM76.1368 78.6205H64.9644V82.3447H76.1368V78.6205Z" fill="#7B9DB9"/>
<path fill-rule="evenodd" clip-rule="evenodd" d="M83.5869 68.9653C83.5869 66.7562 85.3778 64.9653 87.5869 64.9653H98.2076C100.417 64.9653 102.208 66.7562 102.208 68.9653V124.276C102.208 126.485 100.417 128.276 98.2076 128.276H87.5869C85.3778 128.276 83.5869 126.485 83.5869 124.276V68.9653ZM87.3105 86.0688H98.483V89.7929H87.3105V86.0688ZM98.483 78.6205H87.3105V82.3447H98.483V78.6205Z" fill="#7B9DB9"/>
<path fill-rule="evenodd" clip-rule="evenodd" d="M103.222 70.1639C102.899 67.9786 104.408 65.9447 106.593 65.6212L117.099 64.0657C119.285 63.7421 121.318 65.2513 121.642 67.4367L129.743 122.151C130.066 124.336 128.557 126.37 126.372 126.693L115.866 128.249C113.68 128.572 111.647 127.063 111.323 124.878L103.222 70.1639ZM109.411 86.5375L120.463 84.9012L121.009 88.5851L109.957 90.2215L109.411 86.5375ZM119.373 77.5332L108.321 79.1695L108.867 82.8535L119.919 81.2172L119.373 77.5332Z" fill="#7B9DB9"/>
<defs>
<radialGradient id="paint0_radial_3417_3188" cx="0" cy="0" r="1" gradientUnits="userSpaceOnUse" gradientTransform="translate(96 96) rotate(90) scale(96)">
<stop offset="0.755208" stop-color="#BDE1FF" stop-opacity="0"/>
<stop offset="0.875" stop-color="#BDE1FF" stop-opacity="0.1"/>
<stop offset="1" stop-color="#ACDAFF" stop-opacity="0.34"/>
</radialGradient>
</defs>
</svg>
